<svg width="120" height="120" viewBox="0 0 120 120" fill="none" xmlns="http://www.w3.org/2000/svg">
<path d="M59.8125 3.75C35.25 3.75 14.4375 19.5 6.75 41.25H112.875C105.188 19.5 84.375 3.75 59.8125 3.75Z" fill="#3E4347"/>
<path d="M59.8125 116.25C84.375 116.25 105.188 100.688 112.875 78.75H6.75C14.4375 100.688 35.25 116.25 59.8125 116.25Z" fill="#FFE62E"/>
<path d="M6.75 41.25C4.6875 47.0625 3.5625 53.4375 3.5625 60C3.5625 66.5625 4.6875 72.9375 6.75 78.75H112.875C114.938 72.9375 116.062 66.5625 116.062 60C116.062 53.4375 114.938 47.0625 112.875 41.25H6.75Z" fill="#ED4C5C"/>
</svg>
