<svg width="120" height="120" viewBox="0 0 120 120" fill="none" xmlns="http://www.w3.org/2000/svg">
<path d="M3.5625 60C3.5625 84.5625 19.3125 105.375 41.0625 113.062V6.9375C19.3125 14.625 3.5625 35.4375 3.5625 60Z" fill="#428BC1"/>
<path d="M116.062 60C116.062 35.4375 100.5 14.625 78.5625 6.9375V113.062C100.5 105.375 116.062 84.5625 116.062 60Z" fill="#ED4C5C"/>
<path d="M41.0625 113.062C46.875 115.125 53.25 116.25 59.8125 116.25C66.375 116.25 72.75 115.125 78.5625 113.062V6.9375C72.75 4.875 66.5625 3.75 59.8125 3.75C53.0625 3.75 46.875 4.875 41.0625 6.9375V113.062Z" fill="white"/>
</svg>
