<svg width="120" height="120" viewBox="0 0 120 120" fill="none" xmlns="http://www.w3.org/2000/svg">
<path d="M3.1875 60C3.1875 84.5625 18.9375 105.375 40.6875 113.062V6.9375C18.9375 14.625 3.1875 35.4375 3.1875 60Z" fill="#75A843"/>
<path d="M115.688 60C115.688 35.4375 99.9375 14.625 78.1875 6.9375V113.062C100.125 105.375 115.688 84.5625 115.688 60Z" fill="#ED4C5C"/>
<path d="M40.6875 113.062C46.5 115.125 52.875 116.25 59.4375 116.25C66 116.25 72.375 115.125 78.1875 113.062V6.9375C72.375 4.875 66 3.75 59.4375 3.75C52.875 3.75 46.5 4.875 40.6875 6.9375V113.062Z" fill="white"/>
</svg>
