<svg width="120" height="120" viewBox="0 0 120 120" fill="none" xmlns="http://www.w3.org/2000/svg">
<path d="M3.75 60C3.75 71.0625 6.9375 81.375 12.375 90H107.438C112.875 81.375 116.062 71.0625 116.062 60C116.062 48.9375 112.875 38.625 107.438 30H12.375C6.9375 38.625 3.75 48.9375 3.75 60Z" fill="#FFCE31"/>
<path d="M107.625 30C97.6875 14.25 80.0625 3.75 60 3.75C39.9375 3.75 22.3125 14.25 12.375 30H107.625ZM12.375 90C22.3125 105.75 39.9375 116.25 60 116.25C80.0625 116.25 97.6875 105.75 107.625 90H12.375Z" fill="#ED4C5C"/>
<path d="M17.25 53.8125H23.25V57.1875H17.25V53.8125ZM17.25 78.5625H23.4375V81.75H17.25V78.5625Z" fill="#C8B100"/>
<path d="M16.6875 73.3125C16.125 73.6875 15.75 74.0625 15.75 74.25C15.75 74.4375 15.9375 74.625 16.3125 74.8125C16.6875 75 17.0625 75.375 16.875 75.75C17.25 75.375 17.4375 75 17.4375 74.625C17.4375 74.0625 17.0625 73.5 16.6875 73.3125Z" fill="#ED4C5C"/>
<path d="M18.1875 57.1875H22.5V78.5625H18.1875V57.1875Z" fill="white"/>
<path d="M27.0002 65.0625C26.0627 64.6875 24.3752 64.3125 22.5002 64.3125C21.9377 64.3125 21.1877 64.3125 20.4377 64.5C17.8127 64.875 15.7502 66 15.9377 66.75L15.0002 64.6875C14.8127 63.75 17.0627 62.625 19.8752 62.0625C20.8127 61.875 21.7502 61.875 22.5002 61.875C24.3752 61.875 26.0627 62.0625 27.0002 62.4375V65.0625Z" fill="#ED4C5C"/>
<path d="M18.1875 67.875C17.0625 67.875 16.125 67.5 16.125 66.9375C16.125 66.5625 16.5 66 17.25 65.625H18.375L18.1875 67.875ZM22.5 66.1875C23.25 66.375 23.8125 66.5625 24.1875 66.75C24.375 66.9375 23.625 67.6875 22.5 68.25V66.1875Z" fill="#ED4C5C"/>
<path d="M15.3753 72C15.1878 71.625 16.5003 70.875 18.1878 70.3125C18.9378 70.125 19.5003 69.75 20.4378 69.375C22.6878 68.4375 24.5628 67.125 24.1878 66.75L24.5628 69C24.7503 69.375 23.2503 70.5 21.0003 71.625C20.2503 72 18.9378 72.5625 18.1878 72.75C16.8753 73.125 15.7503 73.875 15.7503 74.0625L15.3753 72Z" fill="#ED4C5C"/>
<path d="M57.5625 53.8125H63.5625V57.1875H57.5625V53.8125ZM57.375 78.5625H63.5625V81.75H57.375V78.5625Z" fill="#C8B100"/>
<path d="M64.125 73.3125C64.6875 73.6875 65.0625 74.0625 65.0625 74.25C65.0625 74.4375 64.875 74.625 64.5 74.8125C64.125 75.1875 63.75 75.75 63.9375 75.9375C63.5625 75.5625 63.375 75.1875 63.375 74.8125C63.375 74.0625 63.75 73.5 64.125 73.3125Z" fill="#ED4C5C"/>
<path d="M58.3125 57.1875H62.625V78.5625H58.3125V57.1875Z" fill="white"/>
<path d="M53.8125 65.0625C54.75 64.6875 56.4375 64.3125 58.3125 64.3125C58.875 64.3125 59.625 64.3125 60.375 64.5C63 64.875 65.0625 66 64.875 66.75L65.8125 64.5C66 63.5625 63.75 62.4375 60.9375 61.875H58.3125C56.4375 61.875 54.75 62.0625 53.8125 62.4375V65.0625Z" fill="#ED4C5C"/>
<path d="M62.6249 67.875C63.7499 67.875 64.6874 67.5 64.6874 66.9375C64.6874 66.5625 64.3124 66 63.5624 65.625H62.4374L62.6249 67.875ZM58.3124 66.1875C57.5624 66.375 56.9999 66.5625 56.6249 66.75C56.4374 66.9375 57.1874 67.6875 58.3124 68.25V66.1875Z" fill="#ED4C5C"/>
<path d="M65.4375 72C65.625 71.625 64.3125 70.875 62.625 70.3125C61.875 70.125 61.3125 69.75 60.375 69.375C58.125 68.4375 56.25 67.125 56.625 66.75L56.25 69C56.0625 69.375 57.5625 70.5 59.8125 71.625C60.5625 72 61.875 72.5625 62.625 72.75C63.9375 73.125 65.0625 74.0625 64.875 74.25L65.4375 72ZM40.3125 41.8125C43.875 41.8125 51.1875 42.5625 53.8125 45.1875C51 51.9375 46.5 49.125 40.3125 49.125C34.3125 49.125 29.625 51.9375 26.8125 45.1875C29.4375 42.5625 36.5625 41.8125 40.3125 41.8125Z" fill="#ED4C5C"/>
<path d="M49.5 49.3125C47.25 48 43.875 47.8125 40.3125 47.8125C36.75 47.8125 33.375 48.1875 31.125 49.3125L31.875 52.5C33.9375 53.0625 36.9375 53.4375 40.3125 53.4375C43.6875 53.4375 46.5 53.0625 48.75 52.5L49.5 49.3125ZM52.6875 41.25C51.9375 40.6875 50.4375 40.125 49.125 40.125C48.5625 40.125 48 40.125 47.4375 40.3125C47.4375 40.3125 46.3125 38.8125 43.6875 38.8125C42.75 38.8125 42 39 41.25 39.375V39.1875C41.0625 38.8125 40.6875 38.4375 40.3125 38.4375C39.9375 38.4375 39.375 39 39.375 39.375V39.5625C38.625 39.1875 37.875 39 36.9375 39C34.3125 39 33.1875 40.6875 33.1875 40.5C32.625 40.3125 32.0625 40.3125 31.5 40.3125C22.875 40.3125 27.1875 46.125 27.1875 46.125L28.125 45C26.0625 42.375 27.9375 40.875 31.6875 40.875C32.25 40.875 32.625 40.875 33 41.0625C31.6875 42.9375 34.125 44.625 34.125 44.625L34.6875 43.6875C33.375 42.75 33.1875 39.5625 36.9375 39.5625C37.875 39.5625 38.625 39.75 39.375 40.3125C39.375 40.5 39.1875 43.125 39 43.5L40.5 44.8125L42 43.5C41.8125 42.9375 41.625 40.5 41.625 40.3125C42.1875 39.9375 43.125 39.5625 44.0625 39.5625C48 39.5625 48 42.75 46.3125 43.6875L46.875 44.625C46.875 44.625 48.9375 42.9375 48 41.0625C48.375 41.0625 48.9375 40.875 49.3125 40.875C53.8125 40.875 54 44.25 52.875 45L53.625 46.125C53.25 46.125 55.3125 43.5 52.6875 41.25Z" fill="#C8B100"/>
<path d="M39.1875 37.6875C39.1875 37.125 39.75 36.5625 40.3125 36.5625C41.0625 36.5625 41.4375 37.125 41.4375 37.6875C41.4375 38.25 40.875 38.8125 40.3125 38.8125C39.75 38.8125 39.1875 38.25 39.1875 37.6875Z" fill="#005BBF"/>
<path d="M39.9375 34.5V35.0625H39.375V35.625H39.9375V37.5H39.1875V38.0625H41.4375L41.625 37.6875L41.4375 37.5H40.6875V35.625H41.25V35.0625H40.6875V34.5H39.9375Z" fill="#C8B100"/>
<path d="M40.3125 53.0625C37.3125 53.0625 34.6875 52.6875 32.625 52.125C34.6875 51.5625 37.3125 51.1875 40.3125 51.1875C43.3125 51.1875 45.9375 51.5625 48 52.125C46.125 52.6875 43.3125 53.0625 40.3125 53.0625Z" fill="#ED4C5C"/>
<path d="M40.5 85.5C36.9375 85.5 33.5625 84.5625 30.5625 83.25C28.3125 82.125 27 80.0625 27 77.625V68.625H54V77.625C54 80.0625 52.5 82.3125 50.4375 83.25C47.4375 84.75 44.0625 85.5 40.5 85.5ZM40.3125 53.625H53.8125V68.625H40.3125V53.625Z" fill="white"/>
<path d="M40.5 77.625C40.5 81.1875 37.5 84 33.75 84C30 84 27 81.1875 27 77.625V68.625H40.5V77.625Z" fill="#ED4C5C"/>
<path d="M29.8125 82.875C30.1875 83.0625 30.75 83.4375 31.5 83.625V68.25H30L29.8125 82.875ZM26.8125 77.4375C26.8125 79.3125 27.5625 80.8125 28.3125 81.5625V68.25H26.8125V77.4375Z" fill="#C8B100"/>
<path d="M32.8125 84H34.3125V68.25H32.8125V84Z" fill="#C7B500"/>
<path d="M35.8125 83.625C36.375 83.4375 37.125 83.0625 37.5 82.875V68.25H36L35.8125 83.625Z" fill="#C8B100"/>
<path d="M26.8125 53.625H40.3125V68.625H26.8125V53.625Z" fill="#ED4C5C"/>
<path d="M39 81.5625C39.75 81 40.3125 79.6875 40.5 78.1875V68.4375H39V81.5625Z" fill="#C8B100"/>
<path d="M54 68.625V77.625C54 81.1875 51 84 47.25 84C43.5 84 40.5 81.1875 40.5 77.625V68.625H54ZM49.125 56.25C49.6875 57.375 49.6875 60.1875 48 59.625C48.375 59.8125 48.5625 61.125 49.125 61.875C50.0625 63 51.1875 62.0625 51 60.75C50.625 58.6875 50.8125 57.375 51.1875 55.3125C51.1875 55.5 52.125 55.5 52.5 55.125C52.3125 55.6875 52.125 56.4375 52.5 56.4375C52.125 57 51.1875 57.9375 51 58.5C50.8125 59.8125 52.875 62.25 50.625 62.8125C49.125 63.1875 50.0625 64.3125 50.625 64.875C50.625 64.875 49.875 67.3125 50.25 67.125C48.75 67.6875 49.125 66.375 49.125 66.375C49.875 64.125 47.8125 63.9375 48 63.5625C46.125 63.375 48.1875 65.25 46.5 65.25C46.125 65.25 45.375 65.625 45.375 65.625C43.3125 65.4375 44.4375 63.5625 45.1875 63.75C45.75 63.9375 46.3125 64.875 46.3125 63.5625C46.3125 63.5625 45.375 62.0625 47.8125 62.0625C46.875 62.0625 46.3125 61.3125 45.9375 60.375C45.5625 60.5625 45 61.5 42.9375 61.6875C42.9375 61.6875 42.375 59.625 42.9375 60C43.6875 60.375 44.0625 60.375 44.8125 59.625C44.4375 59.0625 42.1875 58.3125 42.5625 57C42.5625 56.625 43.6875 56.0625 43.6875 56.0625C43.5 57 44.0625 57.9375 45.1875 57.9375C46.6875 58.125 46.125 57.5625 46.3125 57.1875C46.5 56.8125 47.625 57.375 47.25 56.4375C47.25 56.25 45.9375 56.0625 46.3125 55.5C47.0625 54.5625 48.1875 55.3125 49.125 56.25ZM40.5 83.625L40.125 82.6875L40.5 81.5625L40.875 82.6875L40.5 83.625Z" fill="#ED4C5C"/>
<path d="M30.9375 56.8125V57.75H31.3125V58.5H30.375V60.375H30.9375V64.5H29.8125V66.5625H37.5V64.5H36.5625V60.375H36.9375V58.5H36V57.75H36.5625V56.8125H34.6875V57.75H35.0625V58.5H34.125V56.25H34.6875V55.3125H32.625V56.25H33.1875V58.5H32.25V57.75H32.625V56.8125H30.9375ZM52.125 79.875V70.5H42.375V79.875L46.875 81.9375H47.4375L52.125 79.875ZM46.875 71.25V74.4375L43.6875 71.25H46.875ZM42.9375 71.4375L46.6875 75.1875L42.9375 78.9375V71.4375ZM43.3125 79.6875L46.875 76.125V81.375L43.3125 79.6875ZM47.4375 81.1875V75.9375L51 79.5L47.4375 81.1875ZM51.375 78.9375L47.625 75.1875L51.375 71.4375V78.9375ZM47.4375 71.25H50.625L47.4375 74.4375V71.25Z" fill="#C8B100"/>
<path d="M36 68.4375C36 65.625 37.875 63.5625 40.3125 63.5625C42.75 63.5625 44.625 65.8125 44.625 68.4375C44.625 71.0625 42.75 73.3125 40.3125 73.3125C37.875 73.3125 36 71.25 36 68.4375Z" fill="#ED4C5C"/>
<path d="M37.3125 68.4375C37.3125 66.375 38.625 64.875 40.3125 64.875C42 64.875 43.3125 66.5625 43.3125 68.4375C43.3125 70.5 42 72 40.3125 72C38.8125 72.1875 37.3125 70.5 37.3125 68.4375Z" fill="#005BBF"/>
<path d="M39 66L38.25 68.0625L38.8125 68.25L38.4375 69H39.5625L39.1875 68.25L39.75 68.0625L39 66ZM41.8125 66L41.0625 68.0625L41.625 68.25L41.25 69H42.375L42.1875 68.25L42.75 68.0625L41.8125 66ZM40.5 68.4375L39.5625 70.5L40.125 70.6875L39.9375 71.4375H40.875L40.6875 70.6875L41.25 70.5L40.5 68.4375Z" fill="#C8B100"/>
</svg>
