<svg width="120" height="120" viewBox="0 0 120 120" fill="none" xmlns="http://www.w3.org/2000/svg">
<path d="M60 116.25C91.066 116.25 116.25 91.066 116.25 60C116.25 28.934 91.066 3.75 60 3.75C28.934 3.75 3.75 28.934 3.75 60C3.75 91.066 28.934 116.25 60 116.25Z" fill="#ED4C5C"/>
<path d="M41.25 53.25L56.25 63.75L50.625 46.5L65.625 35.625H47.0625L41.25 18.75L35.625 35.625H16.875L31.875 46.5L26.25 63.75L41.25 53.25ZM66.1875 66.1875L61.875 67.125L66 68.8125V73.125L68.8125 69.9375L72.9375 71.4375L70.5 67.875L73.125 64.5L68.8125 65.4375L66.1875 61.875V66.1875ZM72.5625 53.4375L69.375 56.25L73.6875 55.875L75.5625 60L76.3125 55.6875L80.625 55.3125L76.875 53.0625L77.8125 48.75L74.625 51.5625L70.875 49.3125L72.5625 53.4375ZM73.6875 38.8125L75 43.125L76.3125 39H80.625L77.25 36.375L78.5625 32.0625L75 34.6875L71.625 31.875L72.9375 36.1875L69.375 38.625L73.6875 38.8125ZM66.1875 23.8125V28.125L68.8125 24.5625L73.125 25.5L70.5 22.125L72.9375 18.5625L68.8125 20.25L66 16.875V21.1875L61.875 22.875L66.1875 23.8125Z" fill="#FFE62E"/>
</svg>
