<svg width="363" height="21" viewBox="0 0 363 21" fill="none" xmlns="http://www.w3.org/2000/svg">
<path d="M356.517 15.882C355.166 16.0334 354.826 15.8484 354.786 15.1923C354.676 13.4486 356.807 14.1607 357.878 13.5831C358.098 13.4654 356.957 13.2355 356.267 12.9888C355.416 12.6916 355.246 12.2319 355.086 11.7833C356.227 11.1778 355.186 10.5386 355.236 9.9218C355.466 6.88844 359.129 7.87526 358.018 7.00619C356.607 5.89601 355.156 4.93161 357.428 4.24196C358.458 3.92797 356.147 3.62519 358.348 2.99722C359.059 2.79537 358.018 2.31877 356.137 2.2627C349.983 2.08328 354.856 1.94311 349.132 1.74126C344.549 1.57866 349.152 1.60669 339.476 1.14131C336.264 0.989926 332.951 1.22542 329.839 0.614261C329.599 0.563798 329.279 0.586226 328.999 0.59744C327.188 0.67033 325.316 0.26663 323.555 0.715186C321.604 1.2142 319.662 0.535763 317.721 0.748827C316.671 0.860967 314.619 1.37681 312.348 0.905822C311.177 0.664723 310.276 0.748827 309.136 0.945071C307.294 1.25906 305.203 0.883394 303.322 1.24785C303.011 1.30952 302.591 0.692758 300.14 1.11889C293.945 2.19542 289.262 0.087207 285.56 1.62912C285.21 1.7749 284.409 1.81415 283.929 1.73565C281.807 1.39923 279.456 1.97675 277.384 1.32634C276.924 1.18056 275.964 1.26467 275.323 1.36559C272.601 1.79733 268.358 1.2927 266.908 1.57305C265.236 1.89825 264.236 1.38241 262.935 1.25345C262.565 1.2142 262.144 1.29831 261.744 1.29831C260.193 1.29831 258.602 1.19738 257.101 1.32074C255.71 1.43288 254.269 0.636688 252.988 1.39363C252.228 0.429231 249.926 1.52819 249.016 1.4497C245.333 1.12449 241.641 2.1001 237.958 1.41605C237.448 1.32074 236.798 1.65715 228.802 1.92068C228.002 1.94872 227.161 1.71322 226.341 1.70762C226.11 1.70762 220.657 2.08328 217.515 1.71883C215.403 1.47212 212.241 2.20103 211.361 2.05525C208.619 1.60669 205.867 1.81415 203.075 1.96554C201.264 2.06646 199.403 1.92068 197.562 1.89825C194.279 1.87022 190.847 2.46456 185.794 1.79172C182.432 1.34316 184.463 2.16739 173.135 1.84218C167.462 1.67958 161.818 2.02161 156.154 1.92068C154.063 1.88143 151.911 1.64033 149.85 2.05525C147.889 1.70762 145.997 2.25149 144.006 2.12253C137.592 1.6908 132.639 2.32438 129.707 1.89825C123.272 0.967499 3.14265 4.42699 1.4115 4.41577C0.610974 4.41017 0.721047 4.62323 0.600967 4.90358C0.210708 5.8063 -0.529783 5.4867 0.600967 7.38185C0.83112 7.77434 0.130655 8.09954 0.390828 8.53128C0.68102 9.00787 1.28142 9.49568 0.8011 10.0508C0.210708 10.7236 1.48155 10.3031 0.981219 13.3813C0.560941 15.9268 2.34212 15.6633 1.79176 17.166C1.37148 18.3154 3.08261 19.8966 6.37479 19.9526C109.543 21.7861 123.693 18.3715 209.89 19.2237C211.431 19.2406 213.012 19.3415 214.433 18.9322C215.794 19.2237 217.185 19.0275 218.545 18.9434C225.37 18.5341 224.019 19.3807 227.702 19.0499C232.875 18.5845 235.517 19.1116 235.907 18.5621C236.507 17.7267 237.508 18.8032 238.058 18.7359C240.67 18.4219 243.452 18.7359 246.004 18.2369C246.904 18.0575 247.765 17.8893 248.735 18.2089C249.526 18.4724 250.507 17.8669 252.158 17.979C255.22 18.108 254.86 18.0631 255.19 18.2145C254.389 18.506 254.83 18.1472 252.478 18.5453C252.728 18.5958 252.978 18.6799 253.248 18.6911C256.341 18.8481 256.571 18.8369 257.421 18.3266C258.672 17.5753 259.993 17.3062 261.814 18.4388C263.125 19.2574 265.767 18.4275 265.927 18.3266C267.738 17.2389 271.38 18.4219 275.193 17.6258C276.164 17.4239 277.795 18.321 279.206 17.9846C281.437 17.4463 284.669 17.6538 289.182 18.0575C290.753 18.1977 293.945 16.9866 296.087 17.5865C299.699 18.5958 304.212 17.1828 305.843 17.2613C307.084 17.323 308.395 17.4744 309.586 17.1323C310.967 16.7343 311.927 17.4632 313.178 17.4071C313.739 17.379 314.379 17.4632 314.839 17.3566C315.79 17.1323 316.731 17.1548 317.731 17.1884C319.012 17.2333 320.253 17.0482 321.504 16.981C322.704 16.9193 323.965 17.1267 325.206 17.1996C326.147 17.2557 325.857 16.88 327.628 17.1492C332.151 17.8444 331.62 17.5136 334.943 17.2108C337.244 17.0034 345.329 16.1904 343.528 17.3398C342.628 17.9117 340.006 17.951 340.366 18.1416C341.757 18.8705 350.443 17.9566 352.254 17.4744C353.205 17.2221 354.115 17.3062 354.676 17.8725C354.826 18.0238 355.666 18.0463 356.207 18.0911C356.577 18.1192 357.077 17.8332 356.907 17.693C356.187 17.1043 355.296 16.8464 356.227 16.5829C357.748 16.1567 359.489 16.2521 361.58 16.1904C363.462 16.1343 358.868 15.6073 356.557 15.8652L356.517 15.882ZM115.067 11.7328C115.497 11.6151 115.047 11.6431 116.668 11.6039C118.989 11.873 115.917 12.1758 115.067 11.7328ZM126.554 10.69C127.365 10.6563 127.235 10.9591 127.295 11.0656C127.425 12.3889 124.593 10.7685 126.554 10.69ZM128.556 6.56324C126.645 6.45671 127.885 6.25486 127.995 6.24925C129.536 6.16514 131.067 6.51277 128.556 6.56324ZM138.893 11.346C138.422 10.9367 138.552 11.088 138.502 10.8021C138.693 10.4769 138.863 9.8377 139.693 10.3872C140.153 10.69 139.433 11.0488 138.903 11.346H138.893ZM140.914 8.41914C141.524 8.24532 142.765 7.9033 142.835 8.40793C142.915 8.99105 139.873 8.7107 140.914 8.41914ZM143.676 6.22121C143.796 6.18757 143.916 6.1259 144.026 6.1259C147.789 6.19318 147.278 6.17636 147.729 6.37821C147.158 6.49035 145.897 6.46231 146.228 6.46231C143.596 6.41746 144.146 6.48474 143.676 6.22121ZM144.216 8.27336C144.196 7.99862 145.387 7.38185 145.997 7.3426C147.678 7.23046 146.928 8.59295 144.807 8.47521C144.596 8.40793 144.226 8.34625 144.226 8.27336H144.216ZM147.168 12.6916C148.489 11.7553 149.47 12.3552 149.41 12.5178C149.25 13.5439 146.268 13.3308 147.168 12.6916ZM151.341 11.3908C150.72 11.503 150.08 11.7272 149.4 11.4861C147.468 10.8021 147.518 12.0412 144.917 11.0768C145.627 10.9086 146.398 11.0208 147.248 10.3704C148.209 9.63024 149.42 11.1385 150.68 10.9367C151.651 10.7797 150.03 10.3143 151.161 10.2526C151.871 10.2134 152.802 11.1273 151.331 11.3908H151.341ZM153.342 15.8876C153.132 15.8371 153.052 15.6801 152.912 15.5736C153.032 15.54 153.152 15.4951 153.282 15.4839C156.094 15.1755 155.614 15.1643 156.044 15.5568C156.094 16.3249 154.803 16.2464 153.352 15.8876H153.342ZM157.485 8.1444C157.905 8.12758 158.646 8.47521 158.846 8.55931C157.415 8.83966 146.778 8.55931 157.485 8.1444ZM153.863 6.05861C155.243 5.76144 157.135 6.03058 157.145 5.91844C163.949 6.03618 155.494 6.71463 153.863 6.05861ZM161.958 11.3908C161.658 11.4974 160.807 11.1049 160.997 10.9367C161.167 10.7853 161.508 10.6171 161.838 10.5778C162.548 10.4881 162.648 11.1385 161.958 11.3908ZM162.398 5.97451C161.718 5.52034 165.25 5.71098 165.861 5.86237C164.94 6.35017 163.269 6.55763 162.398 5.97451ZM162.929 8.63781C162.728 8.18925 162.598 8.34625 163.399 8.03226C164.76 7.96498 165.65 8.41353 166.621 8.75556C166.721 8.7948 166.661 9.01908 166.521 9.09758C165.61 9.5966 164.51 8.33504 162.919 8.63781H162.929ZM166.141 10.561C166.041 10.4152 165.57 10.3143 165.53 10.1797C165.49 10.0339 166.601 10.0395 167.021 10.2022C167.602 10.432 167.342 10.8133 168.782 10.9142C169.343 10.9535 170.384 10.7909 170.283 11.1834C170.213 11.4301 169.083 11.374 168.392 11.3572C165.33 11.3011 166.321 10.8021 166.151 10.561H166.141ZM172.135 15.6185C170.834 15.2652 169.913 15.3605 168.923 15.9381C168.382 16.2577 167.111 15.8876 167.241 15.4615C167.412 14.8727 168.222 14.9793 170.113 14.9232C172.275 14.9288 172.225 15.0858 172.775 15.4839C172.555 15.5344 172.255 15.6521 172.135 15.6185ZM338.845 5.63248C339.326 5.55399 338.935 5.52034 342.328 6.21C342.297 6.3726 342.318 6.47913 342.267 6.48474C341.407 6.6137 340.506 6.26046 339.606 6.50717C339.566 6.51838 339.025 6.1259 338.715 5.92405C338.495 5.77826 338.535 5.68295 338.855 5.63248H338.845ZM333.382 9.05272C334.602 8.17804 336.904 8.04347 337.204 8.67706C334.702 8.81163 335.993 9.56296 333.902 9.42839C333.672 9.41157 333.442 9.31064 333.252 9.23215C333.211 9.21533 333.312 9.10879 333.382 9.05833V9.05272ZM317.311 8.49203C318.101 8.37989 318.292 8.52006 319.082 8.85087C319.763 9.13683 320.213 9.41157 319.342 9.81527C319.142 9.91059 319.202 10.1293 319.182 10.3143C316.731 9.4396 317.081 9.73677 317.281 8.7892C317.301 8.68827 317.241 8.50324 317.301 8.49203H317.311ZM314.919 4.38213C314.929 4.48867 314.969 4.56716 314.929 4.57277C314.069 4.79705 313.258 5.03254 313.118 4.78023C312.818 4.23635 314.469 4.37653 314.919 4.38213ZM300.44 6.66977C300.57 6.83798 299.419 7.20804 298.909 7.15197C298.709 7.12954 298.569 6.99497 298.398 6.91087C298.488 6.79873 298.518 6.62491 298.679 6.59127C299.189 6.48474 300.25 6.42867 300.44 6.66977ZM296.477 4.85312C298.769 4.42699 298.348 4.51109 298.849 4.71855C298.298 5.62127 295.286 5.0774 296.477 4.85312ZM296.477 5.54277C297.508 5.51474 299.469 5.62688 298.659 5.90162C296.727 6.55763 297.648 7.19122 296.367 7.05104C295.707 6.97815 294.086 5.61006 296.487 5.54277H296.477ZM292.074 3.26635C292.074 3.26635 292.535 3.50745 292.314 3.6308C291.754 3.93918 289.673 4.41017 289.342 3.9504C289.082 3.58595 289.633 3.58595 292.074 3.27196V3.26635ZM289.543 7.12954C290.473 7.08468 291.134 7.56688 291.013 7.61734C290.433 7.83041 290.593 7.86405 289.212 7.337C288.922 7.22486 289.492 7.14075 289.543 7.12954ZM287.781 8.65463C288.532 8.83966 289.272 9.00787 289.963 9.20411C290.823 9.45082 289.462 10.0395 289.202 10.0227C288.152 9.96105 287.121 9.78163 286.11 9.61903C285.9 9.58539 285.73 9.42839 285.63 9.31065C285.42 9.06955 285.52 9.12562 287.791 8.65463H287.781ZM279.796 6.78191C279.086 6.86601 278.435 6.6978 278.285 6.3726C278.255 6.31653 278.535 6.22682 278.675 6.15393C279.586 6.10347 280.607 6.68659 279.796 6.78191ZM279.026 4.97647C279.436 5.03815 279.086 5.20075 278.966 5.21196C278.255 5.27925 277.374 5.83433 276.574 5.11664C276.204 4.78583 278.205 4.85312 279.026 4.97647ZM268.589 6.78752C269.95 6.92769 270.05 6.9389 270.21 6.48474C270.36 6.07543 271.31 5.7278 270.52 5.22318C270.21 5.02693 270.87 4.70734 271.441 4.72416C274.963 4.82508 274.413 4.85312 274.983 4.9989C272.781 5.50352 272.871 5.17271 273.222 6.05861C273.392 6.50717 272.041 6.65295 272.231 7.03983C272.571 7.7407 273.812 8.85648 266.617 8.2229C266.767 7.08468 266.587 6.57445 268.579 6.78752H268.589ZM267.518 5.03254C267.608 5.53717 265.887 5.45867 265.447 5.16711C264.896 4.80265 266.998 4.39335 267.518 5.03254ZM263.065 2.95797C263.175 2.73369 263.615 2.68883 263.986 2.76733C264.146 2.80097 264.156 2.98039 264.236 3.09253C263.876 3.48502 262.875 3.34485 263.065 2.95797ZM263.966 5.95769C264.026 5.92405 264.446 6.00815 264.676 6.05861C264.756 6.07543 264.766 6.16514 264.816 6.22121C264.546 6.89405 261.414 7.39867 263.966 5.96329V5.95769ZM251.147 8.37989C249.376 8.25654 249.946 8.32382 249.086 8.11636C251.147 7.89209 256.381 8.17804 251.147 8.37989ZM247.985 9.49567C248.095 9.14244 248.415 9.18729 252.148 9.24897C252.268 9.24897 252.398 9.30504 252.518 9.33868C251.467 9.75359 250.737 9.52371 250.246 9.9218C248.565 9.8433 247.865 9.88255 247.985 9.50128V9.49567ZM234.896 5.49231C233.816 5.72219 233.956 5.62688 233.766 5.66613C233.515 5.71659 233.285 5.78387 233.045 5.83994C234.186 6.29971 234.546 5.94087 235.597 6.22682C235.537 6.26607 235.487 6.33896 235.427 6.33896C234.216 6.3726 231.874 7.28093 230.633 5.52034C229.953 4.56156 234.666 5.38017 234.896 5.49231ZM226.06 2.84022C227.281 2.85143 226.691 3.59716 225.93 3.3841C225.66 3.3056 225.56 3.10935 225.38 2.96357C225.61 2.91872 225.84 2.84022 226.06 2.84022ZM224.96 6.66977C225.62 7.60613 227.241 6.50156 227.241 7.18C227.241 7.58931 226.02 7.4996 224.89 7.69024C224.049 7.83041 224.109 7.46596 224.139 7.07347C224.149 6.94451 224.139 6.81555 224.179 6.6922C224.269 6.43988 224.91 6.60809 224.96 6.67538V6.66977ZM221.668 5.34092C222.808 5.25121 224.79 5.07739 224.86 5.41942C224.95 5.91844 222.698 5.91283 221.367 5.73902C220.977 5.68855 221.497 5.35214 221.668 5.34092ZM221.147 8.53689C220.687 8.43596 220.367 8.20607 219.986 8.03226C224.68 6.61931 222.848 8.91816 221.147 8.53689ZM218.966 11.1049C219.046 10.8301 217.445 10.4376 218.215 9.91619C218.595 9.65828 219.216 9.78163 219.756 9.83209C220.117 9.31625 220.937 9.434 221.708 9.53492C221.768 9.54053 221.808 9.77602 221.698 9.81527C221.287 9.97787 220.827 10.1349 220.247 9.97227C220.106 10.3928 221.237 10.7236 220.477 11.2394C220.036 11.5366 220.267 12.002 221.217 12.2319C221.738 12.3608 221.347 12.5515 221.307 12.7253C221.087 13.8691 224.239 13.4654 224.419 12.4281C224.449 12.2711 223.709 12.0805 224.419 11.9739C225.67 11.7889 225.56 12.9664 228.052 12.3048C228.622 12.1534 228.282 12.03 227.942 11.9011C226.831 11.4861 229.873 11.5815 231.974 10.9815C231.624 10.903 231.274 10.7628 230.904 10.7516C224.129 10.6002 224.78 10.8077 224.169 10.4264C225.04 10.1685 227.121 10.4825 228.582 10.1461C227.281 9.7592 226.361 9.97227 226.991 9.37232C227.241 9.13122 226.471 9.08637 225.04 8.89573C225.23 8.61538 225.69 8.46399 226.261 8.42475C228.832 8.2229 228.722 8.49764 228.442 8.89573C228.092 9.40036 228.682 9.71435 229.663 9.53492C231.434 9.22093 233.215 9.14244 235.056 9.29382C236.087 9.37793 236.998 8.90134 238.198 9.277C239.719 9.74799 242.111 8.65463 242.942 10.2022C243.042 10.3816 243.062 10.4713 242.691 10.4825C240.58 10.5498 239.009 10.4601 239.559 10.903C240.44 11.6039 240.84 11.1497 242.882 11.0488C243.402 11.0208 243.962 11.1049 244.112 11.4133C243.872 11.4357 243.512 11.7328 242.091 12.0132C241.651 12.1029 241.04 11.9739 240.53 12.0132C236.938 12.2992 239.409 10.2919 236.207 11.0264C236.127 11.0432 236.187 11.2563 236.287 11.3516C236.407 11.4637 236.667 11.5422 236.828 11.6544C237.638 12.2375 235.487 11.9796 233.555 12.1029C232.355 12.1814 231.444 12.7645 230.013 12.5515C229.783 12.5178 229.182 12.7309 229.072 12.8767C228.222 13.9981 226.01 13.8523 218.535 13.7289C217.605 13.7121 217.445 13.0953 218.575 12.972C221.738 12.6356 217.555 12.6804 216.084 12.1422C214.873 11.6992 215.874 11.9796 217.305 11.4469C217.815 11.2563 218.836 11.4581 218.956 11.088L218.966 11.1049ZM235.867 13.4766C235.086 13.6616 233.175 13.5439 233.065 13.5383C232.905 13.5271 232.345 13.3028 232.995 13.2916C235.927 13.2579 235.377 13.2523 235.867 13.4766ZM216.124 5.11104C216.344 5.07179 216.634 5.12225 216.894 5.13346C216.834 5.21757 216.824 5.32971 216.704 5.38578C214.893 6.21 215.143 6.01376 214.443 5.99694C213.602 5.51474 214.813 5.34653 216.124 5.11104ZM204.186 9.64145C207.308 9.56296 206.658 9.5966 207.268 9.78163C204.896 10.219 203.065 9.66949 204.186 9.64145ZM201.664 5.6493C201.194 5.85676 201.694 5.90162 197.942 5.75584C197.722 5.74462 197.512 5.65491 197.291 5.60445C198.012 5.50352 201.044 5.41381 201.664 5.6493ZM192.888 11.0488C192.508 11.2675 190.757 11.346 190.597 10.8413C190.627 10.5386 191.067 10.3872 191.588 10.3143C192.278 10.219 193.259 10.8301 192.888 11.0488ZM190.257 6.07543C190.307 5.82873 190.607 5.83994 191.838 6.17075C191.998 6.21 192.078 6.31093 192.198 6.38382C191.938 6.41185 191.678 6.44549 191.277 6.49035C190.267 6.25486 190.207 6.28289 190.257 6.07543ZM190.467 7.92012C189.596 8.54249 188.716 8.37989 187.995 8.09954C186.914 7.68463 189.206 7.51081 190.467 7.92012ZM183.072 8.32943C182.572 8.307 182.892 8.35746 181.871 8.17243C183.642 7.60613 185.654 8.25654 183.072 8.32943ZM173.966 6.12029C173.736 6.07543 173.506 6.05861 173.506 6.03058C173.496 5.92965 173.476 5.77266 173.606 5.73341C174.646 5.39699 176.357 5.47549 173.966 6.12029ZM176.498 10.3816C176.648 10.4937 176.788 10.5554 176.778 10.6059C176.728 10.9871 176.738 11.3291 175.867 11.2843C175.157 11.245 175.697 10.9871 176.498 10.376V10.3816ZM176.357 15.7418C174.696 15.6297 176.708 14.6821 177.228 15.2821C177.408 15.4839 176.858 15.7755 176.357 15.7418ZM179.68 15.2092C180.88 14.9961 181.161 15.2596 181.301 15.3101C180.02 16.4203 178.579 15.4054 179.68 15.2092ZM182.041 12.6748C180.24 13.2243 178.569 13.0785 177.168 12.3945C178.439 12.1029 183.402 12.2599 182.041 12.6748ZM183.252 10.1517C184.063 10.2021 184.953 11.0264 183.963 11.0824C183.622 11.0993 183.152 10.9815 182.912 10.8526C182.612 10.6956 182.922 10.2078 183.252 10.1517ZM189.256 13.6112C185.804 13.3308 185.534 14.4186 184.103 13.6672C183.872 13.5439 183.502 13.2635 183.963 13.2075C189.356 12.5739 187.765 11.5646 190.627 12.1534C191.187 12.2655 190.637 12.4898 190.727 12.6356C190.897 12.9271 191.948 12.9047 191.958 13.286C191.087 13.4486 190.277 13.6953 189.256 13.6112ZM194.99 12.9327C195.54 13.1514 194.329 14.1046 192.148 13.3028C193.379 13.185 193.469 12.3272 194.99 12.9327ZM194.7 15.697C194.039 15.7474 193.319 15.5231 193.189 15.1923C193.059 14.8559 194.82 14.6709 195.72 15.1643C195.91 15.2708 195.14 15.6633 194.69 15.697H194.7ZM198.692 10.6171C199.463 10.6787 201.234 10.8077 200.103 10.9311C197.091 11.2619 193.559 10.6451 198.692 10.6171ZM208.649 13.7738C209.109 12.9664 207.338 13.0729 206.788 12.6972C205.677 11.9459 204.086 13.8915 202.615 13.0561C201.454 12.4001 198.342 12.5739 199.263 12.8823C200.143 13.1794 200.624 13.3925 199.013 13.4542C198.162 13.4878 196.681 13.9476 196.501 13.342C196.091 11.9515 196.621 12.002 197.471 12.0076C198.622 12.0132 203.375 11.9571 204.356 11.5871C204.776 11.4301 204.366 11.1834 204.226 11.1497C202.755 10.8021 202.295 10.9815 202.805 10.4993C204.026 10.9815 205.127 10.3816 206.317 10.404C207.268 10.4208 212.672 10.219 213.952 10.7292C212.491 11.0768 205.887 10.5498 206.978 11.2226C207.298 11.4189 207.738 11.5759 208.099 11.7609C208.359 11.9011 208.539 12.1758 208.799 12.187C209.129 12.1982 209.489 12.002 209.85 11.9123C210.07 11.8562 210.31 11.8226 210.55 11.7833C210.96 12.9439 208.639 12.6636 211.961 13.7906C211.171 13.9981 208.539 13.9868 208.659 13.7738H208.649ZM235.126 16.039C233.685 16.1736 232.495 15.4615 231.104 15.9044C228.562 15.226 225.55 15.7474 222.898 15.1811C221.888 14.9625 220.457 15.1587 219.226 15.1979C219.016 15.2036 218.766 15.3549 218.676 15.4671C218.595 15.5624 219.496 15.91 219.626 15.9661C218.355 16.4147 215.333 15.7194 214.052 15.9941C213.362 16.1399 212.632 15.6241 211.711 15.91C210.61 16.2521 207.608 14.5531 213.182 14.8671C217.365 15.1082 223.239 13.9925 224.79 14.5251C224.99 14.5924 225.37 14.626 225.58 14.5812C228.172 14.0373 230.553 14.6709 233.005 14.8671C234.866 15.7362 236.667 14.7774 238.879 14.5756C241.03 14.3793 240.26 15.6801 242.661 15.2316C245.723 14.6597 245.543 14.5307 246.664 15.8315C247.375 16.6501 238.389 15.7306 235.126 16.039ZM253.769 15.9325C250.507 15.9941 250.967 14.8671 249.326 15.4222C245.573 13.4261 249.496 15.0578 251.037 14.5251C252.108 14.1551 253.629 14.1719 254.049 14.8447C254.639 15.7923 254.749 15.91 253.779 15.9325H253.769ZM269.579 15.8596C269.489 16.0278 268.248 16.2745 267.378 15.9212C264.756 14.8727 258.012 15.4447 263.515 15.7642C263.635 15.7699 263.725 15.8484 263.836 15.8876C263.765 15.9212 263.705 15.9829 263.635 15.9829C259.773 16.1007 258.512 16.1343 257.982 15.3718C257.571 14.783 255.26 14.6148 257.081 14.4466C260.583 14.1214 265.927 14.2672 266.227 14.1775C268.048 13.6336 268.619 14.5868 269.799 14.7774C269.739 15.1363 269.769 15.5063 269.579 15.854V15.8596ZM271.27 12.3945C271.2 12.5739 270.93 12.6412 270.58 12.6524C269.879 13.129 268.789 12.9103 267.868 12.9944C267.188 13.0561 266.507 13.2131 265.837 13.2019C265.166 13.1907 264.476 12.9159 263.845 12.9496C262.184 13.0393 262.164 12.5571 261.854 12.0132C261.444 11.2899 261.384 12.8038 259.893 12.4057C257.511 11.7665 258.272 13.5383 255.79 13.1514C254.93 13.0168 254.229 12.8991 253.529 13.2748C253.379 13.3589 252.918 13.4374 252.798 13.3981C251.007 12.7701 249.136 13.757 247.495 13.3645C243.722 12.4618 242.982 13.4934 242.301 13.157C240.03 12.0132 246.334 13.1346 245.233 12.2263C244.603 11.7048 244.403 11.4749 244.222 11.4189C246.214 11.1105 246.654 11.9235 247.495 12.4505C247.945 12.7365 248.926 12.2599 248.625 12.0076C248.505 11.9067 247.415 11.7721 247.725 11.4301C248.055 11.0656 248.505 10.7348 247.305 10.5217C247.024 10.4713 247.164 10.1293 249.226 10.4432C250.427 10.6227 250.126 10.1965 250.256 9.93862C250.997 9.94984 252.058 9.82648 251.317 10.4993C251.137 10.6675 253.559 11.1385 254.159 11.0488C255.18 10.903 257.661 11.4413 258.172 11.1497C259.893 10.1573 255.68 10.5386 253.268 10.247C253.078 10.2246 253.218 10.0171 253.409 9.97227C257.161 8.97983 261.444 9.37232 259.823 8.51446C259.643 8.41914 258.762 8.29579 259.443 8.20607C265.036 7.4996 265.747 8.01544 266.507 8.21729C266.127 8.96862 263.315 8.23411 261.644 8.74434C261.854 8.82284 262.044 8.91816 262.274 8.96862C262.685 9.06394 263.345 8.88452 263.545 9.21533C261.614 9.36111 261.464 9.33307 261.474 9.79845C261.474 10.1012 264.466 9.74238 265.006 9.61903C265.427 9.52371 265.126 8.90694 266.357 9.00787C269.179 9.23215 272.591 8.37989 273.832 8.8677C276.084 9.74238 279.396 7.39867 281.147 8.13879C282.248 8.60417 278.595 8.24532 281.237 10.0115C282.138 10.6115 279.056 10.7236 279.156 9.73117C279.236 9.00787 276.644 9.36671 277.094 9.86013C277.505 10.3087 277.274 10.7516 277.344 11.1946C276.364 11.3516 275.513 11.66 274.352 11.6207C273.372 11.5871 272.541 11.8113 272.181 12.2879C271.871 12.3272 271.561 12.3608 271.25 12.4001L271.27 12.3945ZM279.376 12.6468C277.344 12.0693 275.793 14.5644 272.291 12.2992C274.412 12.03 275.093 11.6992 275.693 12.4561C276.014 12.8598 277.605 12.3272 277.465 11.217C279.086 11.2114 279.226 11.873 279.726 12.3664C279.826 12.4674 279.486 12.6748 279.376 12.6412V12.6468ZM280.376 15.9829C278.265 15.9661 279.476 15.0297 276.434 15.1923C275.984 15.2148 275.713 15.3269 275.823 15.5736C276.194 16.4034 273.722 15.3718 272.191 14.7886C272.121 14.7606 272.141 14.6541 272.191 14.6036C272.541 14.2504 273.862 15.2092 275.413 14.2504C276.684 13.4654 276.944 15.0522 281.227 13.9083C281.597 13.8074 282.128 13.8018 282.148 14.0541C282.208 14.912 283.448 14.9232 284.739 14.9232C284.749 16.1175 282.898 16.0053 280.376 15.9829ZM299.079 15.5231C299.209 15.9661 297.178 16.0053 296.597 15.5231C293.095 16.538 292.745 15.1251 289.893 14.9961C290.283 15.383 290.733 15.7138 289.963 15.7642C286.661 15.9829 287.982 15.2148 284.849 14.8952C285.47 14.3513 288.312 13.9981 287.771 14.4746C287.051 15.1026 288.532 14.9961 289.903 14.9961C290.243 14.7326 289.823 14.5924 292.404 14.7326C296.357 14.9456 292.304 13.499 298.939 14.5756C299.019 14.5868 299.069 14.5924 299.099 14.598C299.009 14.598 298.859 14.626 298.779 14.7438C298.659 14.9288 298.428 15.1026 298.248 15.2821C298.689 15.2428 299.019 15.3101 299.089 15.5288L299.079 15.5231ZM304.212 15.596C301.16 15.7082 301.661 15.2484 303.392 14.1663C303.442 14.1326 304.032 14.2055 304.072 14.2728C304.312 14.6316 304.472 15.0073 304.683 15.4447C304.592 15.4727 304.412 15.5848 304.212 15.596ZM296.937 12.7141C295.837 12.6972 295.026 12.6636 295.346 11.4861C292.975 12.3048 290.953 11.2955 291.174 12.529C291.214 12.7309 291.224 12.9888 290.813 12.8655C289.533 12.4786 288.432 12.7253 287.241 12.9047C285.55 13.157 286.32 11.9852 284.939 11.7272C284.439 11.6375 283.198 11.7048 284.209 12.0917C284.519 12.2094 285 12.2711 284.789 12.5346C284.619 12.7477 284.239 12.8038 283.809 12.8262C282.438 12.8991 281.988 13.0393 280.817 11.5927C280.687 11.4357 281.207 10.9142 281.507 10.9254C283.829 11.0264 288.312 9.6807 288.512 11.3291C288.752 11.3011 289.042 11.2899 289.172 11.217C290.013 10.7685 291.013 10.6171 292.014 11.0208C293.175 11.4917 294.336 10.9815 295.466 11.1161C295.466 10.7404 296.097 10.5498 296.557 10.3087C296.647 10.2638 296.757 10.1517 296.727 10.1405C295.557 9.66949 294.866 10.3704 293.835 9.89377C293.615 9.79284 294.076 9.49567 294.496 9.48446C294.926 9.46764 296.337 9.55174 296.537 9.40036C296.877 9.14244 296.207 9.17608 296.007 9.06955C295.406 8.73874 295.316 8.2229 294.256 8.05469C294.146 8.03787 294.046 7.78555 294.156 7.70706C294.626 7.38746 296.887 7.51081 297.038 7.88648C297.678 9.47885 300.77 7.84162 298.328 10.3591C298.038 10.6563 298.579 10.7797 298.819 10.7404C300.7 10.4489 302.801 10.7797 304.633 10.1517C305.553 9.8377 305.053 9.6751 304.963 9.40596C304.653 8.4696 306.674 9.89937 308.565 8.78359C309.125 8.45278 310.146 8.61538 310.967 8.67706C311.357 8.70509 311.387 8.80041 311.177 8.96862C310.817 9.23775 310.797 9.56856 310.186 9.80966C309.476 10.09 308.215 9.69752 307.805 10.3367C307.594 10.6619 306.454 11.3291 306.344 11.2675C307.384 11.402 307.014 11.9291 307.564 12.2038C308.905 12.8767 298.889 12.7365 296.947 12.7029L296.937 12.7141ZM310.486 15.3493C309.956 15.4671 308.745 15.6241 308.765 15.3662C308.795 14.9961 309.376 15.0017 310.076 14.9008C310.416 14.9905 310.637 15.0466 310.867 15.1082C310.737 15.1923 310.647 15.3101 310.476 15.3493H310.486ZM310.647 14.4578C308.575 14.8615 306.674 14.0205 307.574 13.6841C308.535 13.3252 310.146 13.3084 311.017 13.6448C311.587 13.8635 311.037 14.3793 310.647 14.4578ZM308.535 11.3067C308.225 10.7572 310.637 10.9927 311.157 11.1665C309.766 11.6936 309.786 11.5254 312.218 12.2094C311.937 13.0505 308.985 12.1253 308.525 11.3067H308.535ZM315.019 12.3776C314.019 12.658 313.278 12.1141 312.348 12.1814C312.518 11.9571 312.818 11.7216 312.728 11.5198C312.568 11.1385 312.188 10.746 312.908 10.4489C313.518 10.1965 316.52 10.1461 318.021 10.6059C318.502 10.7516 318.992 10.6171 319.232 10.3591C320.313 10.4376 321.143 10.2246 321.614 9.79284C322.274 9.17608 322.745 9.1929 326.077 9.28822C326.227 9.28822 326.447 9.434 326.477 9.5181C326.497 9.57978 326.517 9.61342 326.537 9.63024C326.507 9.61342 326.417 9.59099 326.207 9.63585C324.416 10.0283 327.298 10.4152 326.337 10.8526C325.296 11.3235 325.226 10.8301 324.516 10.9423C323.945 11.032 323.605 11.2675 323.525 11.531C323.355 12.0917 324.256 11.9123 325.576 12.2375C323.815 12.7197 321.994 12.1982 321.284 12.1534C320.723 12.1197 320.093 12.4674 319.442 12.5739C316.811 12.9944 316.34 12.0076 315.029 12.3776H315.019ZM326.527 14.3962C325.176 14.2055 323.895 14.7326 322.464 14.4298C321.604 14.2504 321.724 14.6092 321.854 14.8783C321.904 14.9793 320.853 15.3101 320.753 14.8952C320.533 14.0037 321.644 14.0541 322.745 14.0429C327.878 14.0037 326.887 14.441 326.527 14.3905V14.3962ZM326.077 8.56492C327.828 8.61538 326.987 7.85844 330.129 8.7892C326.037 9.06955 325.196 8.54249 326.077 8.56492ZM328.478 10.2526C329.299 10.2246 329.199 10.5217 329.309 11.2731C326.967 10.9086 327.828 10.275 328.478 10.2526ZM336.834 15.3157C332.301 14.6933 332.731 15.0802 331.931 14.8111C332.071 14.7214 332.201 14.57 332.371 14.5588C333.131 14.5027 333.832 14.0878 334.682 14.4859C334.813 14.5475 335.333 14.5475 335.453 14.4859C336.614 13.8915 337.915 14.1382 339.296 14.2448C343.358 14.5531 343.388 13.5719 344.869 14.4186C346.74 15.4895 339.776 14.7101 336.844 15.3157H336.834ZM349.422 14.783C348.532 14.5588 350.903 14.312 351.013 14.8783C351.083 15.226 350.083 14.9512 349.422 14.783ZM352.634 12.0917C352.965 12.2655 352.554 12.6244 352.074 12.7141C349.352 13.2075 348.832 11.5142 347.821 12.5627C346.75 13.6729 344.119 13.6841 344.099 12.9832C344.099 12.6356 344.249 12.4057 343.408 12.2487C342.898 12.1534 342.518 11.9796 341.897 12.1253C338.575 12.9103 339.636 13.5103 338.815 13.129C338.475 12.9664 339.005 12.473 337.855 12.3496C335.563 12.1029 336.263 11.0768 334.462 11.5815C331.821 12.3216 332.371 12.7029 330.059 12.4337C329.679 12.3889 329.669 12.2935 329.909 12.1422C330.52 11.7665 329.349 11.6039 329.419 11.2899C330.35 10.8582 331.25 10.4376 332.811 10.561C335.223 10.7572 337.534 10.3535 339.886 10.2302C340.416 10.2022 340.486 9.74238 340.066 9.64145C339.205 9.44521 337.624 9.46764 337.324 8.66584C337.965 8.57613 338.605 8.43596 339.225 8.45278C339.616 8.46399 339.966 8.89012 340.346 8.89012C340.827 8.89012 341.297 8.60978 341.817 8.54249C343.708 8.29579 345.209 8.52567 344.119 8.72191C343.208 8.88452 343.048 9.31064 342.618 9.64145C341.707 10.3423 344.129 10.5722 344.669 9.98348C344.969 9.65267 344.849 9.08076 346.62 9.2714C347.411 9.3555 346.22 10.2975 348.402 10.4657C350.973 10.6619 351.974 9.31065 352.925 9.89377C354.706 10.9871 350.563 10.9983 352.624 12.0973L352.634 12.0917ZM353.165 8.33503C351.824 8.61538 351.113 8.13879 351.434 7.81359C352.054 7.19122 352.945 7.72948 353.515 7.94255C353.365 8.12197 353.325 8.30139 353.165 8.33503Z" fill="#FFF8F0"/>
</svg>
