<svg width="363" height="21" viewBox="0 0 363 21" fill="none" xmlns="http://www.w3.org/2000/svg">
<path d="M356.517 15.382C355.166 15.5334 354.826 15.3484 354.786 14.6923C354.676 12.9486 356.807 13.6607 357.878 13.0831C358.098 12.9654 356.957 12.7355 356.267 12.4888C355.416 12.1916 355.246 11.7319 355.086 11.2833C356.227 10.6778 355.186 10.0386 355.236 9.4218C355.466 6.38844 359.129 7.37526 358.018 6.50619C356.607 5.39601 355.156 4.43161 357.428 3.74196C358.458 3.42797 356.147 3.12519 358.348 2.49722C359.059 2.29537 358.018 1.81877 356.137 1.7627C349.983 1.58328 354.856 1.44311 349.132 1.24126C344.549 1.07866 349.152 1.10669 339.476 0.641314C336.264 0.489926 332.951 0.725418 329.839 0.114261C329.599 0.063798 329.279 0.0862258 328.999 0.0974397C327.188 0.17033 325.316 -0.23337 323.555 0.215186C321.604 0.714205 319.662 0.0357633 317.721 0.248827C316.671 0.360967 314.619 0.876806 312.348 0.405822C311.177 0.164723 310.276 0.248827 309.136 0.445071C307.294 0.75906 305.203 0.383394 303.322 0.747846C303.011 0.809523 302.591 0.192758 300.14 0.618886C293.945 1.69542 289.262 -0.412793 285.56 1.12912C285.21 1.2749 284.409 1.31415 283.929 1.23565C281.807 0.899234 279.456 1.47675 277.384 0.826344C276.924 0.680563 275.964 0.764667 275.323 0.865592C272.601 1.29733 268.358 0.792702 266.908 1.07305C265.236 1.39825 264.236 0.882413 262.935 0.753453C262.565 0.714205 262.144 0.798309 261.744 0.798309C260.193 0.798309 258.602 0.697384 257.101 0.820737C255.71 0.932876 254.269 0.136688 252.988 0.893627C252.228 -0.0707689 249.926 1.02819 249.016 0.949697C245.333 0.624493 241.641 1.6001 237.958 0.916055C237.448 0.820737 236.798 1.15715 228.802 1.42068C228.002 1.44872 227.161 1.21322 226.341 1.20762C226.11 1.20762 220.657 1.58328 217.515 1.21883C215.403 0.972124 212.241 1.70103 211.361 1.55525C208.619 1.10669 205.867 1.31415 203.075 1.46554C201.264 1.56646 199.403 1.42068 197.562 1.39825C194.279 1.37022 190.847 1.96456 185.794 1.29172C182.432 0.843164 184.463 1.66739 173.135 1.34218C167.462 1.17958 161.818 1.52161 156.154 1.42068C154.063 1.38143 151.911 1.14033 149.85 1.55525C147.889 1.20762 145.997 1.75149 144.006 1.62253C137.592 1.1908 132.639 1.82438 129.707 1.39825C123.272 0.467499 3.14265 3.92699 1.4115 3.91577C0.610974 3.91017 0.721047 4.12323 0.600967 4.40358C0.210708 5.3063 -0.529783 4.9867 0.600967 6.88185C0.83112 7.27434 0.130655 7.59954 0.390828 8.03128C0.68102 8.50787 1.28142 8.99568 0.8011 9.55076C0.210708 10.2236 1.48155 9.80307 0.981219 12.8813C0.560941 15.4268 2.34212 15.1633 1.79176 16.666C1.37148 17.8154 3.08261 19.3966 6.37479 19.4526C109.543 21.2861 123.693 17.8715 209.89 18.7237C211.431 18.7406 213.012 18.8415 214.433 18.4322C215.794 18.7237 217.185 18.5275 218.545 18.4434C225.37 18.0341 224.019 18.8807 227.702 18.5499C232.875 18.0845 235.517 18.6116 235.907 18.0621C236.507 17.2267 237.508 18.3032 238.058 18.2359C240.67 17.9219 243.452 18.2359 246.004 17.7369C246.904 17.5575 247.765 17.3893 248.735 17.7089C249.526 17.9724 250.507 17.3669 252.158 17.479C255.22 17.608 254.86 17.5631 255.19 17.7145C254.389 18.006 254.83 17.6472 252.478 18.0453C252.728 18.0958 252.978 18.1799 253.248 18.1911C256.341 18.3481 256.571 18.3369 257.421 17.8266C258.672 17.0753 259.993 16.8062 261.814 17.9388C263.125 18.7574 265.767 17.9275 265.927 17.8266C267.738 16.7389 271.38 17.9219 275.193 17.1258C276.164 16.9239 277.795 17.821 279.206 17.4846C281.437 16.9463 284.669 17.1538 289.182 17.5575C290.753 17.6977 293.945 16.4866 296.087 17.0865C299.699 18.0958 304.212 16.6828 305.843 16.7613C307.084 16.823 308.395 16.9744 309.586 16.6323C310.967 16.2343 311.927 16.9632 313.178 16.9071C313.739 16.879 314.379 16.9632 314.839 16.8566C315.79 16.6323 316.731 16.6548 317.731 16.6884C319.012 16.7333 320.253 16.5482 321.504 16.481C322.704 16.4193 323.965 16.6267 325.206 16.6996C326.147 16.7557 325.857 16.38 327.628 16.6492C332.151 17.3444 331.62 17.0136 334.943 16.7108C337.244 16.5034 345.329 15.6904 343.528 16.8398C342.628 17.4117 340.006 17.451 340.366 17.6416C341.757 18.3705 350.443 17.4566 352.254 16.9744C353.205 16.7221 354.115 16.8062 354.676 17.3725C354.826 17.5238 355.666 17.5463 356.207 17.5911C356.577 17.6192 357.077 17.3332 356.907 17.193C356.187 16.6043 355.296 16.3464 356.227 16.0829C357.748 15.6567 359.489 15.7521 361.58 15.6904C363.462 15.6343 358.868 15.1073 356.557 15.3652L356.517 15.382ZM115.067 11.2328C115.497 11.1151 115.047 11.1431 116.668 11.1039C118.989 11.373 115.917 11.6758 115.067 11.2328ZM126.554 10.19C127.365 10.1563 127.235 10.4591 127.295 10.5656C127.425 11.8889 124.593 10.2685 126.554 10.19ZM128.556 6.06324C126.645 5.95671 127.885 5.75486 127.995 5.74925C129.536 5.66514 131.067 6.01277 128.556 6.06324ZM138.893 10.846C138.422 10.4367 138.552 10.588 138.502 10.3021C138.693 9.97689 138.863 9.3377 139.693 9.88718C140.153 10.19 139.433 10.5488 138.903 10.846H138.893ZM140.914 7.91914C141.524 7.74532 142.765 7.4033 142.835 7.90793C142.915 8.49105 139.873 8.2107 140.914 7.91914ZM143.676 5.72121C143.796 5.68757 143.916 5.6259 144.026 5.6259C147.789 5.69318 147.278 5.67636 147.729 5.87821C147.158 5.99035 145.897 5.96231 146.228 5.96231C143.596 5.91746 144.146 5.98474 143.676 5.72121ZM144.216 7.77336C144.196 7.49862 145.387 6.88185 145.997 6.8426C147.678 6.73046 146.928 8.09295 144.807 7.97521C144.596 7.90793 144.226 7.84625 144.226 7.77336H144.216ZM147.168 12.1916C148.489 11.2553 149.47 11.8552 149.41 12.0178C149.25 13.0439 146.268 12.8308 147.168 12.1916ZM151.341 10.8908C150.72 11.003 150.08 11.2272 149.4 10.9861C147.468 10.3021 147.518 11.5412 144.917 10.5768C145.627 10.4086 146.398 10.5208 147.248 9.87036C148.209 9.13024 149.42 10.6385 150.68 10.4367C151.651 10.2797 150.03 9.81429 151.161 9.75261C151.871 9.71336 152.802 10.6273 151.331 10.8908H151.341ZM153.342 15.3876C153.132 15.3371 153.052 15.1801 152.912 15.0736C153.032 15.04 153.152 14.9951 153.282 14.9839C156.094 14.6755 155.614 14.6643 156.044 15.0568C156.094 15.8249 154.803 15.7464 153.352 15.3876H153.342ZM157.485 7.6444C157.905 7.62758 158.646 7.97521 158.846 8.05931C157.415 8.33966 146.778 8.05931 157.485 7.6444ZM153.863 5.55861C155.243 5.26144 157.135 5.53058 157.145 5.41844C163.949 5.53618 155.494 6.21463 153.863 5.55861ZM161.958 10.8908C161.658 10.9974 160.807 10.6049 160.997 10.4367C161.167 10.2853 161.508 10.1171 161.838 10.0778C162.548 9.9881 162.648 10.6385 161.958 10.8908ZM162.398 5.47451C161.718 5.02034 165.25 5.21098 165.861 5.36237C164.94 5.85017 163.269 6.05763 162.398 5.47451ZM162.929 8.13781C162.728 7.68925 162.598 7.84625 163.399 7.53226C164.76 7.46498 165.65 7.91353 166.621 8.25556C166.721 8.2948 166.661 8.51908 166.521 8.59758C165.61 9.0966 164.51 7.83504 162.919 8.13781H162.929ZM166.141 10.061C166.041 9.91521 165.57 9.81429 165.53 9.67972C165.49 9.53394 166.601 9.53955 167.021 9.70215C167.602 9.93203 167.342 10.3133 168.782 10.4142C169.343 10.4535 170.384 10.2909 170.283 10.6834C170.213 10.9301 169.083 10.874 168.392 10.8572C165.33 10.8011 166.321 10.3021 166.151 10.061H166.141ZM172.135 15.1185C170.834 14.7652 169.913 14.8605 168.923 15.4381C168.382 15.7577 167.111 15.3876 167.241 14.9615C167.412 14.3727 168.222 14.4793 170.113 14.4232C172.275 14.4288 172.225 14.5858 172.775 14.9839C172.555 15.0344 172.255 15.1521 172.135 15.1185ZM338.845 5.13248C339.326 5.05399 338.935 5.02034 342.328 5.71C342.297 5.8726 342.318 5.97913 342.267 5.98474C341.407 6.1137 340.506 5.76046 339.606 6.00717C339.566 6.01838 339.025 5.6259 338.715 5.42405C338.495 5.27826 338.535 5.18295 338.855 5.13248H338.845ZM333.382 8.55272C334.602 7.67804 336.904 7.54347 337.204 8.17706C334.702 8.31163 335.993 9.06296 333.902 8.92839C333.672 8.91157 333.442 8.81064 333.252 8.73215C333.211 8.71533 333.312 8.60879 333.382 8.55833V8.55272ZM317.311 7.99203C318.101 7.87989 318.292 8.02006 319.082 8.35087C319.763 8.63683 320.213 8.91157 319.342 9.31527C319.142 9.41059 319.202 9.62926 319.182 9.81429C316.731 8.9396 317.081 9.23677 317.281 8.2892C317.301 8.18827 317.241 8.00324 317.301 7.99203H317.311ZM314.919 3.88213C314.929 3.98867 314.969 4.06716 314.929 4.07277C314.069 4.29705 313.258 4.53254 313.118 4.28023C312.818 3.73635 314.469 3.87653 314.919 3.88213ZM300.44 6.16977C300.57 6.33798 299.419 6.70804 298.909 6.65197C298.709 6.62954 298.569 6.49497 298.398 6.41087C298.488 6.29873 298.518 6.12491 298.679 6.09127C299.189 5.98474 300.25 5.92867 300.44 6.16977ZM296.477 4.35312C298.769 3.92699 298.348 4.01109 298.849 4.21855C298.298 5.12127 295.286 4.5774 296.477 4.35312ZM296.477 5.04277C297.508 5.01474 299.469 5.12688 298.659 5.40162C296.727 6.05763 297.648 6.69122 296.367 6.55104C295.707 6.47815 294.086 5.11006 296.487 5.04277H296.477ZM292.074 2.76635C292.074 2.76635 292.535 3.00745 292.314 3.1308C291.754 3.43918 289.673 3.91017 289.342 3.4504C289.082 3.08595 289.633 3.08595 292.074 2.77196V2.76635ZM289.543 6.62954C290.473 6.58468 291.134 7.06688 291.013 7.11734C290.433 7.33041 290.593 7.36405 289.212 6.837C288.922 6.72486 289.492 6.64075 289.543 6.62954ZM287.781 8.15463C288.532 8.33966 289.272 8.50787 289.963 8.70411C290.823 8.95082 289.462 9.53955 289.202 9.52273C288.152 9.46105 287.121 9.28163 286.11 9.11903C285.9 9.08539 285.73 8.92839 285.63 8.81065C285.42 8.56955 285.52 8.62562 287.791 8.15463H287.781ZM279.796 6.28191C279.086 6.36601 278.435 6.1978 278.285 5.8726C278.255 5.81653 278.535 5.72682 278.675 5.65393C279.586 5.60347 280.607 6.18659 279.796 6.28191ZM279.026 4.47647C279.436 4.53815 279.086 4.70075 278.966 4.71196C278.255 4.77925 277.374 5.33433 276.574 4.61664C276.204 4.28583 278.205 4.35312 279.026 4.47647ZM268.589 6.28752C269.95 6.42769 270.05 6.4389 270.21 5.98474C270.36 5.57543 271.31 5.2278 270.52 4.72318C270.21 4.52693 270.87 4.20734 271.441 4.22416C274.963 4.32508 274.413 4.35312 274.983 4.4989C272.781 5.00352 272.871 4.67271 273.222 5.55861C273.392 6.00717 272.041 6.15295 272.231 6.53983C272.571 7.2407 273.812 8.35648 266.617 7.7229C266.767 6.58468 266.587 6.07445 268.579 6.28752H268.589ZM267.518 4.53254C267.608 5.03717 265.887 4.95867 265.447 4.66711C264.896 4.30265 266.998 3.89335 267.518 4.53254ZM263.065 2.45797C263.175 2.23369 263.615 2.18883 263.986 2.26733C264.146 2.30097 264.156 2.48039 264.236 2.59253C263.876 2.98502 262.875 2.84485 263.065 2.45797ZM263.966 5.45769C264.026 5.42405 264.446 5.50815 264.676 5.55861C264.756 5.57543 264.766 5.66514 264.816 5.72121C264.546 6.39405 261.414 6.89867 263.966 5.46329V5.45769ZM251.147 7.87989C249.376 7.75654 249.946 7.82382 249.086 7.61636C251.147 7.39209 256.381 7.67804 251.147 7.87989ZM247.985 8.99567C248.095 8.64244 248.415 8.68729 252.148 8.74897C252.268 8.74897 252.398 8.80504 252.518 8.83868C251.467 9.25359 250.737 9.02371 250.246 9.4218C248.565 9.3433 247.865 9.38255 247.985 9.00128V8.99567ZM234.896 4.99231C233.816 5.22219 233.956 5.12688 233.766 5.16613C233.515 5.21659 233.285 5.28387 233.045 5.33994C234.186 5.79971 234.546 5.44087 235.597 5.72682C235.537 5.76607 235.487 5.83896 235.427 5.83896C234.216 5.8726 231.874 6.78093 230.633 5.02034C229.953 4.06156 234.666 4.88017 234.896 4.99231ZM226.06 2.34022C227.281 2.35143 226.691 3.09716 225.93 2.8841C225.66 2.8056 225.56 2.60935 225.38 2.46357C225.61 2.41872 225.84 2.34022 226.06 2.34022ZM224.96 6.16977C225.62 7.10613 227.241 6.00156 227.241 6.68C227.241 7.08931 226.02 6.9996 224.89 7.19024C224.049 7.33041 224.109 6.96596 224.139 6.57347C224.149 6.44451 224.139 6.31555 224.179 6.1922C224.269 5.93988 224.91 6.10809 224.96 6.17538V6.16977ZM221.668 4.84092C222.808 4.75121 224.79 4.57739 224.86 4.91942C224.95 5.41844 222.698 5.41283 221.367 5.23902C220.977 5.18855 221.497 4.85214 221.668 4.84092ZM221.147 8.03689C220.687 7.93596 220.367 7.70607 219.986 7.53226C224.68 6.11931 222.848 8.41816 221.147 8.03689ZM218.966 10.6049C219.046 10.3301 217.445 9.93764 218.215 9.41619C218.595 9.15828 219.216 9.28163 219.756 9.33209C220.117 8.81625 220.937 8.934 221.708 9.03492C221.768 9.04053 221.808 9.27602 221.698 9.31527C221.287 9.47787 220.827 9.63487 220.247 9.47227C220.106 9.89279 221.237 10.2236 220.477 10.7394C220.036 11.0366 220.267 11.502 221.217 11.7319C221.738 11.8608 221.347 12.0515 221.307 12.2253C221.087 13.3691 224.239 12.9654 224.419 11.9281C224.449 11.7711 223.709 11.5805 224.419 11.4739C225.67 11.2889 225.56 12.4664 228.052 11.8048C228.622 11.6534 228.282 11.53 227.942 11.4011C226.831 10.9861 229.873 11.0815 231.974 10.4815C231.624 10.403 231.274 10.2628 230.904 10.2516C224.129 10.1002 224.78 10.3077 224.169 9.92643C225.04 9.66851 227.121 9.9825 228.582 9.64608C227.281 9.2592 226.361 9.47227 226.991 8.87232C227.241 8.63122 226.471 8.58637 225.04 8.39573C225.23 8.11538 225.69 7.96399 226.261 7.92475C228.832 7.7229 228.722 7.99764 228.442 8.39573C228.092 8.90036 228.682 9.21435 229.663 9.03492C231.434 8.72093 233.215 8.64244 235.056 8.79382C236.087 8.87793 236.998 8.40134 238.198 8.777C239.719 9.24799 242.111 8.15463 242.942 9.70215C243.042 9.88157 243.062 9.97128 242.691 9.9825C240.58 10.0498 239.009 9.96007 239.559 10.403C240.44 11.1039 240.84 10.6497 242.882 10.5488C243.402 10.5208 243.962 10.6049 244.112 10.9133C243.872 10.9357 243.512 11.2328 242.091 11.5132C241.651 11.6029 241.04 11.4739 240.53 11.5132C236.938 11.7992 239.409 9.79186 236.207 10.5264C236.127 10.5432 236.187 10.7563 236.287 10.8516C236.407 10.9637 236.667 11.0422 236.828 11.1544C237.638 11.7375 235.487 11.4796 233.555 11.6029C232.355 11.6814 231.444 12.2645 230.013 12.0515C229.783 12.0178 229.182 12.2309 229.072 12.3767C228.222 13.4981 226.01 13.3523 218.535 13.2289C217.605 13.2121 217.445 12.5953 218.575 12.472C221.738 12.1356 217.555 12.1804 216.084 11.6422C214.873 11.1992 215.874 11.4796 217.305 10.9469C217.815 10.7563 218.836 10.9581 218.956 10.588L218.966 10.6049ZM235.867 12.9766C235.086 13.1616 233.175 13.0439 233.065 13.0383C232.905 13.0271 232.345 12.8028 232.995 12.7916C235.927 12.7579 235.377 12.7523 235.867 12.9766ZM216.124 4.61104C216.344 4.57179 216.634 4.62225 216.894 4.63346C216.834 4.71757 216.824 4.82971 216.704 4.88578C214.893 5.71 215.143 5.51376 214.443 5.49694C213.602 5.01474 214.813 4.84653 216.124 4.61104ZM204.186 9.14145C207.308 9.06296 206.658 9.0966 207.268 9.28163C204.896 9.71897 203.065 9.16949 204.186 9.14145ZM201.664 5.1493C201.194 5.35676 201.694 5.40162 197.942 5.25584C197.722 5.24462 197.512 5.15491 197.291 5.10445C198.012 5.00352 201.044 4.91381 201.664 5.1493ZM192.888 10.5488C192.508 10.7675 190.757 10.846 190.597 10.3413C190.627 10.0386 191.067 9.88718 191.588 9.81429C192.278 9.71897 193.259 10.3301 192.888 10.5488ZM190.257 5.57543C190.307 5.32873 190.607 5.33994 191.838 5.67075C191.998 5.71 192.078 5.81093 192.198 5.88382C191.938 5.91185 191.678 5.94549 191.277 5.99035C190.267 5.75486 190.207 5.78289 190.257 5.57543ZM190.467 7.42012C189.596 8.04249 188.716 7.87989 187.995 7.59954C186.914 7.18463 189.206 7.01081 190.467 7.42012ZM183.072 7.82943C182.572 7.807 182.892 7.85746 181.871 7.67243C183.642 7.10613 185.654 7.75654 183.072 7.82943ZM173.966 5.62029C173.736 5.57543 173.506 5.55861 173.506 5.53058C173.496 5.42965 173.476 5.27266 173.606 5.23341C174.646 4.89699 176.357 4.97549 173.966 5.62029ZM176.498 9.88157C176.648 9.99371 176.788 10.0554 176.778 10.1059C176.728 10.4871 176.738 10.8291 175.867 10.7843C175.157 10.745 175.697 10.4871 176.498 9.87597V9.88157ZM176.357 15.2418C174.696 15.1297 176.708 14.1821 177.228 14.7821C177.408 14.9839 176.858 15.2755 176.357 15.2418ZM179.68 14.7092C180.88 14.4961 181.161 14.7596 181.301 14.8101C180.02 15.9203 178.579 14.9054 179.68 14.7092ZM182.041 12.1748C180.24 12.7243 178.569 12.5785 177.168 11.8945C178.439 11.6029 183.402 11.7599 182.041 12.1748ZM183.252 9.65169C184.063 9.70215 184.953 10.5264 183.963 10.5824C183.622 10.5993 183.152 10.4815 182.912 10.3526C182.612 10.1956 182.922 9.70776 183.252 9.65169ZM189.256 13.1112C185.804 12.8308 185.534 13.9186 184.103 13.1672C183.872 13.0439 183.502 12.7635 183.963 12.7075C189.356 12.0739 187.765 11.0646 190.627 11.6534C191.187 11.7655 190.637 11.9898 190.727 12.1356C190.897 12.4271 191.948 12.4047 191.958 12.786C191.087 12.9486 190.277 13.1953 189.256 13.1112ZM194.99 12.4327C195.54 12.6514 194.329 13.6046 192.148 12.8028C193.379 12.685 193.469 11.8272 194.99 12.4327ZM194.7 15.197C194.039 15.2474 193.319 15.0231 193.189 14.6923C193.059 14.3559 194.82 14.1709 195.72 14.6643C195.91 14.7708 195.14 15.1633 194.69 15.197H194.7ZM198.692 10.1171C199.463 10.1787 201.234 10.3077 200.103 10.4311C197.091 10.7619 193.559 10.1451 198.692 10.1171ZM208.649 13.2738C209.109 12.4664 207.338 12.5729 206.788 12.1972C205.677 11.4459 204.086 13.3915 202.615 12.5561C201.454 11.9001 198.342 12.0739 199.263 12.3823C200.143 12.6794 200.624 12.8925 199.013 12.9542C198.162 12.9878 196.681 13.4476 196.501 12.842C196.091 11.4515 196.621 11.502 197.471 11.5076C198.622 11.5132 203.375 11.4571 204.356 11.0871C204.776 10.9301 204.366 10.6834 204.226 10.6497C202.755 10.3021 202.295 10.4815 202.805 9.99932C204.026 10.4815 205.127 9.88157 206.317 9.904C207.268 9.92082 212.672 9.71897 213.952 10.2292C212.491 10.5768 205.887 10.0498 206.978 10.7226C207.298 10.9189 207.738 11.0759 208.099 11.2609C208.359 11.4011 208.539 11.6758 208.799 11.687C209.129 11.6982 209.489 11.502 209.85 11.4123C210.07 11.3562 210.31 11.3226 210.55 11.2833C210.96 12.4439 208.639 12.1636 211.961 13.2906C211.171 13.4981 208.539 13.4868 208.659 13.2738H208.649ZM235.126 15.539C233.685 15.6736 232.495 14.9615 231.104 15.4044C228.562 14.726 225.55 15.2474 222.898 14.6811C221.888 14.4625 220.457 14.6587 219.226 14.6979C219.016 14.7036 218.766 14.8549 218.676 14.9671C218.595 15.0624 219.496 15.41 219.626 15.4661C218.355 15.9147 215.333 15.2194 214.052 15.4941C213.362 15.6399 212.632 15.1241 211.711 15.41C210.61 15.7521 207.608 14.0531 213.182 14.3671C217.365 14.6082 223.239 13.4925 224.79 14.0251C224.99 14.0924 225.37 14.126 225.58 14.0812C228.172 13.5373 230.553 14.1709 233.005 14.3671C234.866 15.2362 236.667 14.2774 238.879 14.0756C241.03 13.8793 240.26 15.1801 242.661 14.7316C245.723 14.1597 245.543 14.0307 246.664 15.3315C247.375 16.1501 238.389 15.2306 235.126 15.539ZM253.769 15.4325C250.507 15.4941 250.967 14.3671 249.326 14.9222C245.573 12.9261 249.496 14.5578 251.037 14.0251C252.108 13.6551 253.629 13.6719 254.049 14.3447C254.639 15.2923 254.749 15.41 253.779 15.4325H253.769ZM269.579 15.3596C269.489 15.5278 268.248 15.7745 267.378 15.4212C264.756 14.3727 258.012 14.9447 263.515 15.2642C263.635 15.2699 263.725 15.3484 263.836 15.3876C263.765 15.4212 263.705 15.4829 263.635 15.4829C259.773 15.6007 258.512 15.6343 257.982 14.8718C257.571 14.283 255.26 14.1148 257.081 13.9466C260.583 13.6214 265.927 13.7672 266.227 13.6775C268.048 13.1336 268.619 14.0868 269.799 14.2774C269.739 14.6363 269.769 15.0063 269.579 15.354V15.3596ZM271.27 11.8945C271.2 12.0739 270.93 12.1412 270.58 12.1524C269.879 12.629 268.789 12.4103 267.868 12.4944C267.188 12.5561 266.507 12.7131 265.837 12.7019C265.166 12.6907 264.476 12.4159 263.845 12.4496C262.184 12.5393 262.164 12.0571 261.854 11.5132C261.444 10.7899 261.384 12.3038 259.893 11.9057C257.511 11.2665 258.272 13.0383 255.79 12.6514C254.93 12.5168 254.229 12.3991 253.529 12.7748C253.379 12.8589 252.918 12.9374 252.798 12.8981C251.007 12.2701 249.136 13.257 247.495 12.8645C243.722 11.9618 242.982 12.9934 242.301 12.657C240.03 11.5132 246.334 12.6346 245.233 11.7263C244.603 11.2048 244.403 10.9749 244.222 10.9189C246.214 10.6105 246.654 11.4235 247.495 11.9505C247.945 12.2365 248.926 11.7599 248.625 11.5076C248.505 11.4067 247.415 11.2721 247.725 10.9301C248.055 10.5656 248.505 10.2348 247.305 10.0217C247.024 9.97128 247.164 9.62926 249.226 9.94325C250.427 10.1227 250.126 9.69654 250.256 9.43862C250.997 9.44984 252.058 9.32648 251.317 9.99932C251.137 10.1675 253.559 10.6385 254.159 10.5488C255.18 10.403 257.661 10.9413 258.172 10.6497C259.893 9.65729 255.68 10.0386 253.268 9.74701C253.078 9.72458 253.218 9.51712 253.409 9.47227C257.161 8.47983 261.444 8.87232 259.823 8.01446C259.643 7.91914 258.762 7.79579 259.443 7.70607C265.036 6.9996 265.747 7.51544 266.507 7.71729C266.127 8.46862 263.315 7.73411 261.644 8.24434C261.854 8.32284 262.044 8.41816 262.274 8.46862C262.685 8.56394 263.345 8.38452 263.545 8.71533C261.614 8.86111 261.464 8.83307 261.474 9.29845C261.474 9.60122 264.466 9.24238 265.006 9.11903C265.427 9.02371 265.126 8.40694 266.357 8.50787C269.179 8.73215 272.591 7.87989 273.832 8.3677C276.084 9.24238 279.396 6.89867 281.147 7.63879C282.248 8.10417 278.595 7.74532 281.237 9.51151C282.138 10.1115 279.056 10.2236 279.156 9.23117C279.236 8.50787 276.644 8.86671 277.094 9.36013C277.505 9.80868 277.274 10.2516 277.344 10.6946C276.364 10.8516 275.513 11.16 274.352 11.1207C273.372 11.0871 272.541 11.3113 272.181 11.7879C271.871 11.8272 271.561 11.8608 271.25 11.9001L271.27 11.8945ZM279.376 12.1468C277.344 11.5693 275.793 14.0644 272.291 11.7992C274.412 11.53 275.093 11.1992 275.693 11.9561C276.014 12.3598 277.605 11.8272 277.465 10.717C279.086 10.7114 279.226 11.373 279.726 11.8664C279.826 11.9674 279.486 12.1748 279.376 12.1412V12.1468ZM280.376 15.4829C278.265 15.4661 279.476 14.5297 276.434 14.6923C275.984 14.7148 275.713 14.8269 275.823 15.0736C276.194 15.9034 273.722 14.8718 272.191 14.2886C272.121 14.2606 272.141 14.1541 272.191 14.1036C272.541 13.7504 273.862 14.7092 275.413 13.7504C276.684 12.9654 276.944 14.5522 281.227 13.4083C281.597 13.3074 282.128 13.3018 282.148 13.5541C282.208 14.412 283.448 14.4232 284.739 14.4232C284.749 15.6175 282.898 15.5053 280.376 15.4829ZM299.079 15.0231C299.209 15.4661 297.178 15.5053 296.597 15.0231C293.095 16.038 292.745 14.6251 289.893 14.4961C290.283 14.883 290.733 15.2138 289.963 15.2642C286.661 15.4829 287.982 14.7148 284.849 14.3952C285.47 13.8513 288.312 13.4981 287.771 13.9746C287.051 14.6026 288.532 14.4961 289.903 14.4961C290.243 14.2326 289.823 14.0924 292.404 14.2326C296.357 14.4456 292.304 12.999 298.939 14.0756C299.019 14.0868 299.069 14.0924 299.099 14.098C299.009 14.098 298.859 14.126 298.779 14.2438C298.659 14.4288 298.428 14.6026 298.248 14.7821C298.689 14.7428 299.019 14.8101 299.089 15.0288L299.079 15.0231ZM304.212 15.096C301.16 15.2082 301.661 14.7484 303.392 13.6663C303.442 13.6326 304.032 13.7055 304.072 13.7728C304.312 14.1316 304.472 14.5073 304.683 14.9447C304.592 14.9727 304.412 15.0848 304.212 15.096ZM296.937 12.2141C295.837 12.1972 295.026 12.1636 295.346 10.9861C292.975 11.8048 290.953 10.7955 291.174 12.029C291.214 12.2309 291.224 12.4888 290.813 12.3655C289.533 11.9786 288.432 12.2253 287.241 12.4047C285.55 12.657 286.32 11.4852 284.939 11.2272C284.439 11.1375 283.198 11.2048 284.209 11.5917C284.519 11.7094 285 11.7711 284.789 12.0346C284.619 12.2477 284.239 12.3038 283.809 12.3262C282.438 12.3991 281.988 12.5393 280.817 11.0927C280.687 10.9357 281.207 10.4142 281.507 10.4254C283.829 10.5264 288.312 9.1807 288.512 10.8291C288.752 10.8011 289.042 10.7899 289.172 10.717C290.013 10.2685 291.013 10.1171 292.014 10.5208C293.175 10.9917 294.336 10.4815 295.466 10.6161C295.466 10.2404 296.097 10.0498 296.557 9.80868C296.647 9.76383 296.757 9.65169 296.727 9.64047C295.557 9.16949 294.866 9.87036 293.835 9.39377C293.615 9.29284 294.076 8.99567 294.496 8.98446C294.926 8.96764 296.337 9.05174 296.537 8.90036C296.877 8.64244 296.207 8.67608 296.007 8.56955C295.406 8.23874 295.316 7.7229 294.256 7.55469C294.146 7.53787 294.046 7.28555 294.156 7.20706C294.626 6.88746 296.887 7.01081 297.038 7.38648C297.678 8.97885 300.77 7.34162 298.328 9.85915C298.038 10.1563 298.579 10.2797 298.819 10.2404C300.7 9.94886 302.801 10.2797 304.633 9.65169C305.553 9.3377 305.053 9.1751 304.963 8.90596C304.653 7.9696 306.674 9.39937 308.565 8.28359C309.125 7.95278 310.146 8.11538 310.967 8.17706C311.357 8.20509 311.387 8.30041 311.177 8.46862C310.817 8.73775 310.797 9.06856 310.186 9.30966C309.476 9.59001 308.215 9.19752 307.805 9.83672C307.594 10.1619 306.454 10.8291 306.344 10.7675C307.384 10.902 307.014 11.4291 307.564 11.7038C308.905 12.3767 298.889 12.2365 296.947 12.2029L296.937 12.2141ZM310.486 14.8493C309.956 14.9671 308.745 15.1241 308.765 14.8662C308.795 14.4961 309.376 14.5017 310.076 14.4008C310.416 14.4905 310.637 14.5466 310.867 14.6082C310.737 14.6923 310.647 14.8101 310.476 14.8493H310.486ZM310.647 13.9578C308.575 14.3615 306.674 13.5205 307.574 13.1841C308.535 12.8252 310.146 12.8084 311.017 13.1448C311.587 13.3635 311.037 13.8793 310.647 13.9578ZM308.535 10.8067C308.225 10.2572 310.637 10.4927 311.157 10.6665C309.766 11.1936 309.786 11.0254 312.218 11.7094C311.937 12.5505 308.985 11.6253 308.525 10.8067H308.535ZM315.019 11.8776C314.019 12.158 313.278 11.6141 312.348 11.6814C312.518 11.4571 312.818 11.2216 312.728 11.0198C312.568 10.6385 312.188 10.246 312.908 9.94886C313.518 9.69654 316.52 9.64608 318.021 10.1059C318.502 10.2516 318.992 10.1171 319.232 9.85915C320.313 9.93764 321.143 9.72458 321.614 9.29284C322.274 8.67608 322.745 8.6929 326.077 8.78822C326.227 8.78822 326.447 8.934 326.477 9.0181C326.497 9.07978 326.517 9.11342 326.537 9.13024C326.507 9.11342 326.417 9.09099 326.207 9.13585C324.416 9.52833 327.298 9.91521 326.337 10.3526C325.296 10.8235 325.226 10.3301 324.516 10.4423C323.945 10.532 323.605 10.7675 323.525 11.031C323.355 11.5917 324.256 11.4123 325.576 11.7375C323.815 12.2197 321.994 11.6982 321.284 11.6534C320.723 11.6197 320.093 11.9674 319.442 12.0739C316.811 12.4944 316.34 11.5076 315.029 11.8776H315.019ZM326.527 13.8962C325.176 13.7055 323.895 14.2326 322.464 13.9298C321.604 13.7504 321.724 14.1092 321.854 14.3783C321.904 14.4793 320.853 14.8101 320.753 14.3952C320.533 13.5037 321.644 13.5541 322.745 13.5429C327.878 13.5037 326.887 13.941 326.527 13.8905V13.8962ZM326.077 8.06492C327.828 8.11538 326.987 7.35844 330.129 8.2892C326.037 8.56955 325.196 8.04249 326.077 8.06492ZM328.478 9.75261C329.299 9.72458 329.199 10.0217 329.309 10.7731C326.967 10.4086 327.828 9.77504 328.478 9.75261ZM336.834 14.8157C332.301 14.1933 332.731 14.5802 331.931 14.3111C332.071 14.2214 332.201 14.07 332.371 14.0588C333.131 14.0027 333.832 13.5878 334.682 13.9859C334.813 14.0475 335.333 14.0475 335.453 13.9859C336.614 13.3915 337.915 13.6382 339.296 13.7448C343.358 14.0531 343.388 13.0719 344.869 13.9186C346.74 14.9895 339.776 14.2101 336.844 14.8157H336.834ZM349.422 14.283C348.532 14.0588 350.903 13.812 351.013 14.3783C351.083 14.726 350.083 14.4512 349.422 14.283ZM352.634 11.5917C352.965 11.7655 352.554 12.1244 352.074 12.2141C349.352 12.7075 348.832 11.0142 347.821 12.0627C346.75 13.1729 344.119 13.1841 344.099 12.4832C344.099 12.1356 344.249 11.9057 343.408 11.7487C342.898 11.6534 342.518 11.4796 341.897 11.6253C338.575 12.4103 339.636 13.0103 338.815 12.629C338.475 12.4664 339.005 11.973 337.855 11.8496C335.563 11.6029 336.263 10.5768 334.462 11.0815C331.821 11.8216 332.371 12.2029 330.059 11.9337C329.679 11.8889 329.669 11.7935 329.909 11.6422C330.52 11.2665 329.349 11.1039 329.419 10.7899C330.35 10.3582 331.25 9.93764 332.811 10.061C335.223 10.2572 337.534 9.85354 339.886 9.73019C340.416 9.70215 340.486 9.24238 340.066 9.14145C339.205 8.94521 337.624 8.96764 337.324 8.16584C337.965 8.07613 338.605 7.93596 339.225 7.95278C339.616 7.96399 339.966 8.39012 340.346 8.39012C340.827 8.39012 341.297 8.10978 341.817 8.04249C343.708 7.79579 345.209 8.02567 344.119 8.22191C343.208 8.38452 343.048 8.81064 342.618 9.14145C341.707 9.84232 344.129 10.0722 344.669 9.48348C344.969 9.15267 344.849 8.58076 346.62 8.7714C347.411 8.8555 346.22 9.79747 348.402 9.96568C350.973 10.1619 351.974 8.81065 352.925 9.39377C354.706 10.4871 350.563 10.4983 352.624 11.5973L352.634 11.5917ZM353.165 7.83503C351.824 8.11538 351.113 7.63879 351.434 7.31359C352.054 6.69122 352.945 7.22948 353.515 7.44255C353.365 7.62197 353.325 7.80139 353.165 7.83503Z" fill="#4B00D4"/>
</svg>
