<svg width="141" height="18" viewBox="0 0 141 18" fill="none" xmlns="http://www.w3.org/2000/svg">
<g clip-path="url(#clip0_577_670)">
<path d="M57.5434 17.4425C56.281 17.3996 55.0515 17.2233 53.9002 16.6363C53.4609 16.4121 53.0444 16.1325 52.6328 15.8503C52.5672 15.805 52.5268 15.5908 52.5647 15.4976C52.9711 14.4521 53.3928 13.4117 53.8245 12.3788C53.8523 12.3107 54.0492 12.2477 54.1022 12.2881C55.0742 13.0136 56.1725 13.2983 57.3111 13.3638C57.7832 13.3915 58.273 13.2555 58.7401 13.1245C58.8739 13.0867 59.0077 12.807 59.0304 12.6231C59.0431 12.5249 58.8285 12.3309 58.6896 12.2855C57.864 12.0261 57.0132 11.8497 56.2028 11.5449C54.9833 11.0889 53.8245 10.4817 53.1378 9.18432C52.6783 8.3177 52.6 7.35282 52.8045 6.39298C53.0974 5.01998 53.8523 4.02487 54.9909 3.36482C55.819 2.88364 56.7027 2.71233 57.6166 2.67202C58.9547 2.61156 60.2726 2.75012 61.5501 3.22374C61.9642 3.37742 62.3706 3.55377 62.7771 3.73515C63.1836 3.91402 63.2341 4.13068 63.0372 4.57911C62.6812 5.38527 62.3429 6.199 61.9919 7.00768C61.8909 7.23693 61.8051 7.36038 61.492 7.25961C60.6791 7.00012 59.8459 6.82377 59.0128 6.64742C58.6795 6.57688 58.3311 6.56681 57.9877 6.56681C57.7302 6.56681 57.3717 6.60712 57.4146 6.96485C57.4424 7.19662 57.7226 7.48886 57.9448 7.57451C59.038 7.99271 60.1868 8.26227 61.2471 8.75857C62.2116 9.207 63.1912 9.7965 63.5068 11.0461C63.9435 12.7768 63.7517 14.3916 62.5095 15.6865C61.694 16.5355 60.6892 16.9966 59.5909 17.1905C58.9143 17.3115 58.2276 17.3644 57.5434 17.45V17.4425Z" fill="white"/>
<path d="M51.2845 10.7434C51.2845 12.774 51.2795 14.8045 51.2896 16.835C51.2896 17.0869 51.229 17.1524 50.9765 17.1499C49.6712 17.1373 48.3659 17.1348 47.0607 17.1499C46.7628 17.155 46.687 17.0794 46.687 16.7796C46.6996 13.3055 46.6946 9.82894 46.6946 6.35488C46.6946 5.783 46.7072 7.70016 46.6895 7.12829C46.682 6.87636 46.7577 6.8033 47.0102 6.80582C48.3281 6.81842 49.6435 6.82094 50.9614 6.80582C51.2416 6.8033 51.2921 6.88896 51.2896 7.14844C51.2795 9.17897 51.2845 8.71795 51.2845 10.7485V10.7434Z" fill="white"/>
<path d="M48.9213 0.63875C50.6533 0.70677 51.5874 1.86311 51.6177 3.14794C51.6581 4.7779 50.3907 5.85867 48.891 5.84355C47.4191 5.83095 46.2451 4.62423 46.3688 2.99174C46.4698 1.67669 47.4772 0.719366 48.9213 0.63623V0.63875Z" fill="white"/>
<path d="M92.5711 11.8522C92.5711 10.1743 92.5787 8.49399 92.5711 6.81616C92.561 4.81334 92.5408 2.81305 92.5105 0.810231C92.5055 0.540669 92.5636 0.447457 92.8564 0.452495C94.1264 0.47013 95.3963 0.485246 96.6637 0.444937C97.0576 0.432341 97.1358 0.618767 97.1434 0.895886C97.1611 1.68442 97.1585 2.47294 97.1484 3.26147C97.1434 3.79304 97.108 4.3246 97.0954 4.85617C97.0929 4.96702 97.1232 5.08038 97.1409 5.19375C97.2191 5.12825 97.2949 5.06023 97.3757 4.99977C98.5976 4.0626 99.9685 3.77792 101.491 3.97443C102.418 4.09283 103.238 4.3498 103.9 5.03504C104.498 5.65478 104.771 6.42063 104.967 7.23184C105.389 8.96761 105.172 10.7336 105.212 12.4845C105.243 13.8222 105.217 15.16 105.217 16.4977C105.217 16.9638 105.076 17.0318 104.594 17.0015C103.892 16.9562 103.185 16.9864 102.478 16.9839C101.95 16.9839 101.42 16.9638 100.893 16.9839C100.607 16.994 100.638 16.8277 100.638 16.6438C100.638 14.4218 100.663 12.1998 100.62 9.97783C100.61 9.51681 100.458 8.98272 100.188 8.61995C99.6201 7.85661 98.176 8.1035 97.5852 8.98273C97.156 9.6201 97.0853 10.328 97.0929 11.0636C97.1106 12.8876 97.1257 14.7115 97.1383 16.5355C97.1409 16.9486 96.9439 17.067 96.4718 17.0469C95.8381 17.0192 95.2019 17.0469 94.5657 17.0368C93.9244 17.0242 93.2831 16.999 92.6444 16.9537C92.5939 16.9512 92.5206 16.7622 92.5206 16.6589C92.5131 15.0592 92.5156 13.4569 92.5156 11.8572C92.5333 11.8572 92.5535 11.8572 92.5711 11.8572V11.8522Z" fill="white"/>
<path d="M120.043 9.80374C119.972 12.59 118.899 14.6584 116.813 16.0691C115.826 16.7368 114.761 17.092 113.587 17.1877C111.814 17.3313 110.221 16.8451 108.833 15.6913C107.338 14.4493 106.434 12.7891 106.212 10.6779C106.035 9.00261 106.346 7.46334 107.106 6.05003C107.709 4.92896 108.563 4.04973 109.628 3.42496C110.832 2.71956 112.105 2.40214 113.456 2.48779C114.998 2.58604 116.397 3.09997 117.611 4.20593C118.881 5.36227 119.623 6.84108 119.949 8.59449C120.027 9.01269 120.02 9.45104 120.045 9.80122L120.043 9.80374ZM112.875 6.92925C112.481 6.95697 111.931 7.11064 111.554 7.60946C110.749 8.68014 110.577 9.88435 111.034 11.1969C111.378 12.1794 112.077 12.6883 112.961 12.779C113.718 12.8571 114.392 12.4918 114.877 11.7914C115.432 10.9878 115.518 10.0657 115.344 9.12857C115.107 7.8639 114.412 6.94185 112.875 6.92925Z" fill="white"/>
<path d="M127.72 2.4248C129.02 2.43992 130.24 2.75735 131.374 3.42999C133.27 4.55862 134.433 6.30447 134.777 8.65495C135.113 10.945 134.605 12.9906 133.156 14.7163C132.05 16.0314 130.71 16.8249 129.089 17.102C128.084 17.2734 127.089 17.2708 126.125 16.9862C125.135 16.6939 124.163 16.2757 123.416 15.4393C122.89 14.8523 122.305 14.2905 121.924 13.5977C121.542 12.8999 121.318 12.0736 121.136 11.2725C120.808 9.81885 120.989 8.37027 121.504 7.00987C121.764 6.32211 122.211 5.71245 122.62 5.1053C123.522 3.77009 124.809 3.09493 126.226 2.69185C126.71 2.55329 127.218 2.51298 127.715 2.42732L127.72 2.4248ZM125.544 9.84404C125.695 10.3907 125.781 10.9727 126.014 11.4765C126.733 13.041 128.748 13.1896 129.7 11.8116C130.25 11.0155 130.316 10.1615 130.192 9.21674C130.058 8.18133 129.47 7.34493 128.596 7.03758C127.915 6.79825 127.23 6.87635 126.688 7.32226C125.971 7.91428 125.622 8.78595 125.544 9.84152V9.84404Z" fill="white"/>
<path d="M73.0047 17.2054C72.5124 17.1727 71.8509 17.1979 71.2121 17.0694C70.6264 16.9535 70.0583 16.6991 69.5004 16.4623C69.1242 16.3035 68.7732 16.0743 68.4147 15.8652C68.1446 15.7065 68.0209 15.4848 68.1698 15.1346C68.5814 14.1596 68.9878 13.1822 69.3842 12.1997C69.4726 11.9805 69.5635 12.0057 69.7099 12.1064C70.586 12.6985 71.5126 13.1318 72.5603 13.1116C73.1233 13.1016 73.6914 13.0461 74.2468 12.9504C74.3882 12.9252 74.5978 12.6733 74.5978 12.5246C74.5978 12.3785 74.3933 12.1543 74.2393 12.1014C73.3884 11.8092 72.5073 11.6202 71.6741 11.2776C70.9521 10.9803 70.2452 10.5898 69.5988 10.1263C68.4981 9.33525 68.1496 7.84385 68.3264 6.62704C68.4097 6.04509 68.5006 5.40772 68.7758 4.92906C69.1772 4.23878 69.7503 3.67446 70.4295 3.27642C71.8004 2.47278 73.2546 2.41987 74.7669 2.5408C76.1202 2.64912 77.3699 3.0648 78.5818 3.68454C78.6449 3.71729 78.708 3.90876 78.6802 3.98433C78.3192 4.93914 77.9582 5.89646 77.5542 6.82858C77.4936 6.97218 77.173 7.11326 77.0392 7.06036C76.0419 6.65979 75.0194 6.42046 73.9615 6.37764C73.7293 6.36756 73.4894 6.39275 73.2672 6.46077C73.1486 6.49856 72.9895 6.65224 72.9794 6.76812C72.9693 6.8966 73.0779 7.1183 73.1864 7.16617C73.656 7.37778 74.1408 7.56169 74.6281 7.71788C75.951 8.14112 77.2613 8.58199 78.3318 9.61489C78.7863 10.0532 79.0842 10.5823 79.1852 11.2297C79.3846 12.502 79.3013 13.7364 78.6171 14.8348C78.0995 15.6662 77.3522 16.2028 76.5241 16.5781C75.4536 17.0669 74.32 17.218 73.0072 17.2004L73.0047 17.2054Z" fill="white"/>
<path d="M86.7896 2.48555C88.4358 2.45531 89.9152 2.99696 91.2281 4.0878C91.2887 4.13818 91.3265 4.35232 91.2836 4.40775C90.4782 5.47843 89.6577 6.53652 88.8347 7.5921C88.7993 7.63744 88.6655 7.65004 88.6251 7.61477C87.8222 6.87159 86.8982 6.6902 85.9666 7.13611C85.0956 7.55431 84.6638 8.39322 84.5704 9.46391C84.4492 10.8823 84.9239 11.9907 85.9691 12.5374C86.7568 12.9506 87.5571 12.7969 88.3221 12.4266C88.5923 12.2956 88.8094 12.0336 89.072 11.8748C89.1427 11.832 89.3446 11.9126 89.4027 12.0008C90.0238 12.9858 90.6297 13.981 91.2357 14.9761C91.5437 15.4799 91.4907 15.5882 91.0009 15.9208C90.0238 16.5859 88.9735 17.0167 87.8399 17.1628C86.3327 17.3568 84.8532 17.1855 83.5252 16.3314C82.8334 15.888 82.1846 15.3212 81.6114 14.7015C80.6521 13.661 80.2001 12.3208 79.9729 10.8697C79.7911 9.7108 79.9148 8.56453 80.2279 7.48629C80.4526 6.71539 80.9323 6.03015 81.3363 5.3298C81.8942 4.3624 82.745 3.7477 83.6489 3.25896C84.626 2.72991 85.6788 2.44272 86.7846 2.48807L86.7896 2.48555Z" fill="white"/>
<path d="M140.553 8.73564C140.553 11.3632 140.548 13.9908 140.561 16.6159C140.561 16.8955 140.495 16.9711 140.21 16.9686C138.905 16.9535 137.599 16.956 136.294 16.9686C136.037 16.9686 135.941 16.961 135.948 16.6361C135.963 16.0188 135.87 15.3991 135.847 14.7819C135.84 14.6055 135.958 14.4267 135.958 14.2478C135.968 13.0688 135.963 11.8898 135.963 10.7107C135.963 9.97511 135.963 9.23697 135.963 8.50134C135.963 7.74053 135.963 6.97971 135.963 6.21889C135.963 5.45807 135.963 4.67458 135.963 3.90117C135.963 3.07989 135.963 2.25861 135.963 1.43984C135.963 1.19296 135.981 0.94355 135.958 0.696662C135.933 0.424581 136.1 0.454812 136.271 0.454812C137.589 0.454812 138.905 0.464889 140.223 0.449774C140.49 0.447255 140.558 0.515275 140.558 0.784836C140.548 3.4351 140.551 6.08789 140.551 8.73816L140.553 8.73564Z" fill="white"/>
<path d="M10.4573 11.6681V6.79328C10.4573 6.02238 10.4573 5.25149 10.4573 4.48059C10.4573 3.68702 10.4573 2.89094 10.4573 2.09737C10.4573 1.67413 10.4446 1.24838 10.4674 0.82514C10.4724 0.739485 10.6138 0.593368 10.6946 0.593368C12.0731 0.578252 13.4491 0.578252 14.8275 0.593368C14.9008 0.593368 15.0346 0.774755 15.0371 0.873006C15.0522 2.21074 15.0447 3.54847 15.0497 4.88871C15.0497 4.98948 15.1103 5.08774 15.1431 5.18599C15.2366 5.14316 15.3451 5.12049 15.4183 5.05499C16.0142 4.53602 16.7211 4.25386 17.4861 4.12538C18.5667 3.94147 19.6397 3.98178 20.6824 4.37478C21.8463 4.81314 22.4749 5.71503 22.8082 6.85122C23.2853 8.48118 23.1591 10.1615 23.1692 11.8293C23.1793 13.4794 23.1642 15.127 23.1768 16.7771C23.1768 17.029 23.1162 17.0945 22.8637 17.092C21.5938 17.0794 20.3239 17.0845 19.0539 17.087C18.7535 17.087 18.5944 17.0165 18.5969 16.6537C18.607 14.4191 18.5995 12.1845 18.5742 9.95244C18.5692 9.43095 18.4732 8.89938 18.0062 8.55676C17.4533 8.15116 16.0142 8.18643 15.5143 9.1236C15.2164 9.68036 15.0447 10.2623 15.0472 10.8946C15.0522 12.8546 15.0447 14.8146 15.0548 16.7746C15.0548 17.0215 14.9992 17.0946 14.7417 17.0895C13.4238 17.0744 12.1059 17.0744 10.788 17.0895C10.5179 17.092 10.4497 17.024 10.4522 16.7544C10.4648 15.0565 10.4598 13.361 10.4598 11.663L10.4573 11.6681Z" fill="white"/>
<path d="M36.4467 2.57869C36.9996 2.65931 37.9616 2.71725 38.8831 2.95154C39.6556 3.14804 40.3903 3.54105 41.1275 3.88367C41.173 3.90382 41.1351 4.26156 41.067 4.43035C40.7589 5.19873 40.4282 5.95702 40.105 6.71784C40.0823 6.77075 40.0697 6.82869 40.0646 6.88663C40.0318 7.17635 39.9637 7.36277 39.6279 7.22925C38.5018 6.77579 37.3405 6.48859 36.1337 6.50119C36.0276 6.50119 35.8989 6.47851 35.8181 6.53394C35.6716 6.63219 35.4545 6.77327 35.4444 6.91183C35.4343 7.06046 35.6035 7.29979 35.7449 7.36277C36.1816 7.55928 36.6386 7.70288 37.0956 7.84899C38.4185 8.26971 39.7263 8.7131 40.7943 9.74852C41.2285 10.1692 41.5239 10.6655 41.63 11.2953C41.7966 12.2804 41.7764 13.2377 41.4457 14.1925C41.1048 15.1801 40.4408 15.8199 39.6607 16.3288C38.6508 16.9914 37.5223 17.1678 36.3685 17.3088C34.8915 17.4902 33.4852 17.1753 32.1017 16.7143C31.5715 16.5379 31.112 16.0945 30.6298 15.7544C30.5768 15.7167 30.5566 15.5353 30.5894 15.4547C30.9024 14.6712 31.2332 13.8927 31.5538 13.1117C31.6599 12.8573 31.781 12.6054 31.8517 12.3383C31.9174 12.0889 32.0158 12.1292 32.1598 12.2325C33.0308 12.8523 33.9725 13.2478 35.0177 13.2377C35.5681 13.2327 36.1236 13.1722 36.6689 13.0815C36.8204 13.0563 37.0602 12.8094 37.0501 12.691C37.0325 12.5197 36.8456 12.2854 36.6891 12.23C35.9696 11.9856 35.2222 11.837 34.5103 11.5699C33.869 11.3306 33.2479 11.0132 32.6395 10.6781C31.5892 10.0987 30.9529 9.15145 30.7888 7.86159C30.6323 6.64226 30.8671 5.51867 31.6068 4.56387C32.7733 3.05735 34.3335 2.62404 36.4417 2.57617L36.4467 2.57869Z" fill="white"/>
<path d="M6.47837 10.3505C6.47837 11.0559 6.4607 11.7612 6.48342 12.4641C6.50867 13.2476 6.65763 13.4164 7.44787 13.3534C7.564 13.3433 7.68519 13.3207 7.79628 13.2829C8.39211 13.0788 8.38453 13.0788 8.59914 13.6759C8.88695 14.472 9.1773 15.2681 9.47521 16.0616C9.5459 16.2531 9.53328 16.3564 9.32878 16.4823C8.2179 17.1726 6.99342 17.3389 5.71843 17.3263C4.61766 17.3137 3.68099 16.9509 2.93872 16.1246C2.39591 15.5225 2.06012 14.8045 1.997 14.0135C1.91116 12.9226 1.92126 11.8267 1.90359 10.7309C1.89097 9.8718 1.89349 9.01021 1.90359 8.15114C1.90611 7.93196 1.84552 7.86143 1.62335 7.86898C1.18152 7.8841 0.737172 7.86394 0.292822 7.87654C0.0857951 7.88158 -0.00509462 7.83623 -4.51876e-05 7.60194C0.0125784 6.57156 -4.51885e-05 5.54118 0.0176278 4.5108C0.0176278 4.42767 0.17921 4.27903 0.272624 4.27399C0.714449 4.2488 1.1588 4.25132 1.60062 4.26643C1.83037 4.27399 1.91369 4.21605 1.90612 3.97168C1.88844 3.45775 1.89854 2.94382 1.90107 2.42989C1.90107 2.12758 1.82027 1.87817 2.34289 1.81267C3.27704 1.69175 4.18846 1.3844 5.10998 1.15514C5.48111 1.06445 5.86234 1.00399 6.21833 0.872985C6.51877 0.759618 6.47837 0.930928 6.47837 1.09972C6.47837 2.04948 6.48847 2.99924 6.47332 3.94649C6.4708 4.19086 6.53139 4.27399 6.78639 4.26895C7.52866 4.25132 8.27092 4.26895 9.01319 4.25888C9.23789 4.25384 9.32625 4.29918 9.3212 4.54859C9.30606 5.56386 9.30353 6.57912 9.3212 7.59438C9.32625 7.85639 9.22022 7.88158 9.00814 7.87906C8.2785 7.86898 7.54633 7.88662 6.81669 7.86898C6.55664 7.86394 6.4607 7.92441 6.4708 8.20153C6.491 8.917 6.47837 9.63499 6.47837 10.3505Z" fill="white"/>
<path d="M29.3675 10.6883C29.3675 12.7188 29.3625 14.7493 29.3726 16.7798C29.3726 17.0318 29.312 17.0973 29.0595 17.0947C27.7542 17.0822 26.449 17.0796 25.1437 17.0947C24.8458 17.0998 24.77 17.0242 24.77 16.7244C24.7826 13.2504 24.7776 9.77377 24.7776 6.2997C24.7776 5.72783 24.7902 7.64499 24.7725 7.07311C24.765 6.82119 24.8407 6.74813 25.0932 6.75065C26.4111 6.76324 27.7265 6.76576 29.0444 6.75065C29.3246 6.74813 29.3751 6.83378 29.3726 7.09327C29.3625 9.1238 29.3675 8.66277 29.3675 10.6933V10.6883Z" fill="white"/>
<path d="M27.0043 0.583574C28.7363 0.651594 29.6704 1.80794 29.7007 3.09276C29.7411 4.72273 28.4737 5.80349 26.974 5.78837C25.5021 5.77578 24.3281 4.56905 24.4518 2.93657C24.5528 1.62151 25.5602 0.66419 27.0043 0.581055V0.583574Z" fill="white"/>
</g>
<defs>
<clipPath id="clip0_577_670">
<rect width="140.561" height="17" fill="white" transform="translate(0 0.442383)"/>
</clipPath>
</defs>
</svg>
