<svg width="10" height="16" viewBox="0 0 10 16" fill="none" xmlns="http://www.w3.org/2000/svg">
<path fill-rule="evenodd" clip-rule="evenodd" d="M9.06001 6.93998C9.34091 7.22123 9.49869 7.60248 9.49869 7.99998C9.49869 8.39748 9.34091 8.77873 9.06001 9.05998L3.40401 14.718C3.12262 14.9992 2.74102 15.1572 2.34316 15.1571C1.9453 15.157 1.56377 14.9989 1.28251 14.7175C1.00125 14.4361 0.84329 14.0545 0.843384 13.6566C0.843478 13.2588 1.00162 12.8772 1.28301 12.596L5.87901 7.99998L1.28301 3.40398C1.00964 3.1212 0.858265 2.74237 0.861496 2.34907C0.864727 1.95577 1.0223 1.57948 1.30028 1.30123C1.57827 1.02299 1.95441 0.865058 2.34771 0.861456C2.741 0.857854 3.11998 1.00887 3.40301 1.28198L9.06101 6.93898L9.06001 6.93998Z" fill="#00095A"/>
</svg>
