<svg width="10" height="16" viewBox="0 0 10 16" fill="none" xmlns="http://www.w3.org/2000/svg">
<path fill-rule="evenodd" clip-rule="evenodd" d="M0.939989 9.06002C0.659088 8.77877 0.501308 8.39752 0.501308 8.00002C0.501308 7.60252 0.659088 7.22127 0.939989 6.94002L6.59599 1.28202C6.87738 1.00076 7.25898 0.842802 7.65684 0.842896C8.0547 0.842989 8.43623 1.00113 8.71749 1.28252C8.99875 1.56392 9.15671 1.94552 9.15662 2.34338C9.15652 2.74123 8.99838 3.12276 8.71699 3.40402L4.12099 8.00002L8.71699 12.596C8.99036 12.8788 9.14173 13.2576 9.1385 13.6509C9.13527 14.0442 8.9777 14.4205 8.69972 14.6988C8.42173 14.977 8.04559 15.1349 7.65229 15.1385C7.259 15.1421 6.88002 14.9911 6.59699 14.718L0.938988 9.06102L0.939989 9.06002Z" fill="#00095A"/>
</svg>
