<?xml version="1.0" encoding="utf-8"?>
<!-- Generator: Adobe Illustrator 27.7.0, SVG Export Plug-In . SVG Version: 6.00 Build 0)  -->
<svg version="1.1" id="TiS_x5F_SingleLine_00000103231599518729646560000012812582152391648651_"
	 xmlns="http://www.w3.org/2000/svg" xmlns:xlink="http://www.w3.org/1999/xlink" x="0px" y="0px" viewBox="0 0 1920 229.1"
	 style="enable-background:new 0 0 1920 229.1;" xml:space="preserve">
<style type="text/css">
	.st0{fill:#2D005D;}
</style>
<g id="TiS_x5F_SingleLine">
	<path class="st0" d="M1379.2,47.2c-22.6,0-37.8,6.4-48,14.2c-1.9,1.5-4.6,0.2-4.6-2.2V2.9c0-1.5-1.3-2.8-2.8-2.8h-56.3
		c-1.6,0-2.8,1.3-2.8,2.8v220.2c0,1.6,1.3,2.8,2.8,2.8h56.3c1.6,0,2.8-1.3,2.8-2.8v-68.9v-11.5c0.9-14.3,5.8-36.7,27.3-36.7
		c17.1,0,20.7,11.3,21.3,17.9v4.6v94.7c0,1.6,1.3,2.8,2.8,2.8h56.3c1.6,0,2.8-1.3,2.8-2.8V112v-2.8c0-0.2,0-0.4-0.1-0.6
		C1436.6,93,1431.4,47.2,1379.2,47.2z"/>
	<path class="st0" d="M115.6,173.5c-0.5-1.4-2.1-2.2-3.5-1.8c-16.9,5-23.9,5.6-23.9-10.4v-58.7c0-1.6,1.3-2.8,2.8-2.8h33
		c1.5,0,2.8-1.3,2.8-2.8V53.1c0-1.6-1.3-2.8-2.8-2.8H91c-1.6,0-2.8-1.3-2.8-2.8V5.1c0-1.6-1.2-2.4-2.8-2L29,16.1
		c-1.7,0.4-2.8,2.1-2.8,3.6v27.7c0,1.6-1.3,2.8-2.8,2.8H2.8c-1.6,0-2.8,1.3-2.8,2.8V97c0,1.6,1.3,2.8,2.8,2.8h20.5
		c1.6,0,2.8,1.3,2.8,2.8V179c0,25.7,19.4,46.8,44.3,49.7c1.9,0.2,3.8,0.3,5.7,0.3h1.9h7.2c0,0,0.1,0,0.1,0
		c18.5-0.5,32.7-4.6,42.9-12c1-0.7,1.4-2,1-3.2L115.6,173.5z"/>
	<ellipse transform="matrix(0.9732 -0.2298 0.2298 0.9732 1.6526 85.8311)" class="st0" cx="369.4" cy="35.8" rx="35.8" ry="35.8"/>
	<path class="st0" d="M397.6,84.6h-56.3c-1.6,0-2.8,1.3-2.8,2.8V223c0,1.6,1.3,2.8,2.8,2.8h56.3c1.6,0,2.8-1.3,2.8-2.8V87.4
		C400.4,85.8,399.1,84.6,397.6,84.6z"/>
	<path class="st0" d="M257.7,47.1c-22.6,0-37.8,6.4-48,14.2c-1.9,1.5-4.6,0.2-4.6-2.2V2.8c0-1.5-1.3-2.8-2.8-2.8h-56.3
		c-1.6,0-2.8,1.3-2.8,2.8V223c0,1.6,1.3,2.8,2.8,2.8h56.3c1.6,0,2.8-1.3,2.8-2.8v-68.9v-11.5c0.9-14.3,5.8-36.7,27.3-36.7
		c17.1,0,20.7,11.3,21.3,17.9v4.6V223c0,1.6,1.3,2.8,2.8,2.8h56.3c1.6,0,2.8-1.3,2.8-2.8V112v-2.8c0-0.2,0-0.4-0.1-0.6
		C315.1,92.9,309.8,47.1,257.7,47.1z"/>
	<ellipse transform="matrix(0.9732 -0.2298 0.2298 0.9732 9.68 154.7748)" class="st0" cx="669.5" cy="35.8" rx="35.8" ry="35.8"/>
	<path class="st0" d="M697.7,84.6h-56.3c-1.6,0-2.8,1.3-2.8,2.8V223c0,1.6,1.3,2.8,2.8,2.8h56.3c1.6,0,2.8-1.3,2.8-2.8V87.4
		C700.5,85.8,699.2,84.6,697.7,84.6z"/>
	<path class="st0" d="M1917.2,0h-56.3c-1.6,0-2.8,1.3-2.8,2.8V223c0,1.6,1.3,2.8,2.8,2.8h56.3c1.6,0,2.8-1.3,2.8-2.8V2.8
		C1920,1.3,1918.7,0,1917.2,0z"/>
	<path class="st0" d="M1007.5,96.6c-8.4-3.2-12.7-7.7-10.6-13.1c2-5.4,7-8.5,22.5-3.7c10.7,3.2,28.9,10,34,11.6
		c1.4,0.4,2.9-0.3,3.4-1.6c3.2-7.6,13.1-31.7,17.1-41.8c0.5-1.3,0-2.6-1.1-3.4c-18-12.1-74.2-26.4-107.2-8.8
		c-34.2,18.2-34.4,50.7-34.4,50.7c-2.7,49.8,40.9,62.4,81,73.5c6.5,1.8,8.7,13.6-5.9,14c-24.9,0.7-48.2-9-56-14.3
		c-1.5-1-3.5-0.4-4.2,1.3l-17.6,43c-0.4,1-0.2,2.1,0.5,2.9c4.3,5.1,22.2,22.1,68.9,22.1c54.9,0,83.2-26,83.2-72.2
		S1015.9,99.8,1007.5,96.6z"/>
	<path class="st0" d="M1545,25.9c-52.3,0-94.8,45.5-94.8,101.6c0,56.1,42.4,101.6,94.8,101.6c52.3,0,94.7-45.5,94.7-101.6
		C1639.7,71.4,1597.3,25.9,1545,25.9z M1545,168.4c-18.2,0-32.9-18.3-32.9-40.9c0-22.6,14.7-40.9,32.9-40.9
		c18.1,0,32.9,18.3,32.9,40.9C1577.9,150.1,1563.1,168.4,1545,168.4z"/>
	<path class="st0" d="M1748.9,25.9c-52.3,0-94.8,45.5-94.8,101.6c0,56.1,42.4,101.6,94.8,101.6c52.3,0,94.7-45.5,94.7-101.6
		C1843.6,71.4,1801.2,25.9,1748.9,25.9z M1748.9,168.4c-18.2,0-32.9-18.3-32.9-40.9c0-22.6,14.7-40.9,32.9-40.9
		c18.1,0,32.9,18.3,32.9,40.9C1781.8,150.1,1767,168.4,1748.9,168.4z"/>
	<path class="st0" d="M1220,155.2c-1.1-1.8-3.3-1.4-4.8,0c-9.1,8.8-17.7,11.8-28.2,11.8c-18.2,0-32.6-16.9-32.6-39.5
		c0-22.6,14.7-40.9,32.9-40.9c8.2,0,16.8,2.9,22.6,9c1.2,1.3,3.2,1.1,4.3-0.3l32.3-43.7c0.9-1.2,0.7-2.9-0.4-3.9
		c-16.2-13.7-36.6-21.8-58.7-21.8c-52.3,0-94.8,45.5-94.8,101.6c0,56.1,42.4,101.6,94.8,101.6c23.3,0,44.7-9.1,61.2-24.1
		c1-0.9,1.2-2.5,0.5-3.7L1220,155.2z"/>
	<path class="st0" d="M720.1,86.6c0,0,0.2-32.5,34.4-50.7c32.9-17.5,89.1-3.3,107.2,8.8c1.1,0.8,1.6,2.1,1.1,3.4
		c-4,10.1-13.9,34.1-17.1,41.8c-0.6,1.4-2,2-3.4,1.6c-5.1-1.6-23.3-8.4-34-11.6c-15.5-4.7-20.5-1.7-22.5,3.7
		c-2,5.4,2.2,9.9,10.6,13.1c8.4,3.2,73.6,14,73.6,60.3s-28.3,72.2-83.2,72.2c-46.7,0-64.6-17-68.9-22.1c-0.7-0.8-0.9-1.9-0.5-2.9
		l17.6-43c0.7-1.7,2.7-2.3,4.2-1.3c7.8,5.3,31.1,15,56,14.3c14.6-0.4,12.4-12.2,5.9-14C761,148.9,717.4,136.4,720.1,86.6z"/>
	<path class="st0" d="M420,86.6c0,0,0.2-32.5,34.4-50.7c32.9-17.5,89.1-3.3,107.2,8.8c1.1,0.8,1.6,2.1,1.1,3.4
		c-4,10.1-13.9,34.1-17.1,41.8c-0.6,1.4-2,2-3.4,1.6c-5.1-1.6-23.3-8.4-34-11.6c-15.5-4.7-20.5-1.7-22.5,3.7
		c-2,5.4,2.2,9.9,10.6,13.1s73.6,14,73.6,60.3s-28.3,72.2-83.2,72.2c-46.7,0-64.6-17-68.9-22.1c-0.7-0.8-0.9-1.9-0.5-2.9l17.6-43
		c0.7-1.7,2.7-2.3,4.2-1.3c7.8,5.3,31.1,15,56,14.3c14.6-0.4,12.4-12.2,5.9-14C460.9,148.9,417.4,136.4,420,86.6z"/>
</g>
</svg>
