<svg width="506" height="20" viewBox="0 0 506 20" fill="none" xmlns="http://www.w3.org/2000/svg">
<path d="M498.305 15.3804C496.417 15.5318 495.942 15.3468 495.886 14.6908C495.732 12.9472 498.711 13.6592 500.208 13.0818C500.515 12.964 498.921 12.7342 497.956 12.4875C496.767 12.1904 496.529 11.7306 496.305 11.2821C497.9 10.6766 496.445 10.0375 496.515 9.42082C496.837 6.38778 501.956 7.3745 500.403 6.50551C498.431 5.39545 496.403 4.43115 499.578 3.74157C501.019 3.42761 497.788 3.12487 500.865 2.49696C501.858 2.29513 500.403 1.81859 497.774 1.76252C489.172 1.58312 495.984 1.44296 487.984 1.24113C481.578 1.07854 488.012 1.10658 474.487 0.641247C469.997 0.489875 465.368 0.725343 461.018 0.114249C460.682 0.0637914 460.235 0.0862169 459.843 0.0974296C457.312 0.170312 454.696 -0.233346 452.234 0.215163C449.507 0.71413 446.794 0.0357595 444.08 0.248802C442.612 0.360929 439.745 0.876715 436.57 0.40578C434.933 0.164706 433.675 0.248802 432.08 0.445025C429.507 0.758981 426.584 0.383354 423.954 0.747769C423.521 0.809439 422.933 0.192738 419.507 0.618822C410.849 1.69525 404.303 -0.41275 399.128 1.129C398.639 1.27477 397.52 1.31401 396.849 1.23552C393.884 0.89914 390.597 1.4766 387.702 0.826258C387.058 0.680492 385.716 0.764588 384.82 0.865502C381.016 1.29719 375.086 0.792619 373.058 1.07294C370.722 1.39811 369.324 0.882321 367.505 0.753375C366.988 0.71413 366.4 0.798226 365.841 0.798226C363.673 0.798226 361.449 0.697311 359.351 0.820651C357.407 0.932779 355.393 0.136674 353.603 0.893534C352.54 -0.0707615 349.323 1.02809 348.05 0.949598C342.903 0.624428 337.742 1.59994 332.595 0.91596C331.882 0.820651 330.973 1.15703 319.798 1.42053C318.679 1.44856 317.504 1.2131 316.357 1.20749C316.036 1.20749 308.413 1.58312 304.021 1.2187C301.07 0.972023 296.651 1.70085 295.42 1.55509C291.588 1.10658 287.741 1.31401 283.839 1.46538C281.308 1.5663 278.706 1.42053 276.133 1.39811C271.545 1.37008 266.748 1.96435 259.685 1.29159C254.985 0.843077 257.825 1.66721 241.992 1.34204C234.062 1.17946 226.174 1.52145 218.257 1.42053C215.334 1.38129 212.327 1.14021 209.446 1.55509C206.705 1.20749 204.061 1.75131 201.278 1.62236C192.313 1.19067 185.389 1.82419 181.291 1.39811C172.298 0.46745 4.3925 3.92658 1.97287 3.91537C0.853961 3.90976 1.00781 4.1228 0.839975 4.40312C0.294508 5.30575 -0.74048 4.98618 0.839975 6.88114C1.16166 7.27358 0.182618 7.59875 0.546262 8.03044C0.951865 8.50698 1.79104 8.99474 1.1197 9.54977C0.294508 10.2225 2.07077 9.80206 1.37145 12.88C0.784029 15.4252 3.27359 15.1617 2.50435 16.6643C1.91692 17.8136 4.30858 19.3946 8.91008 19.4506C153.109 21.2839 172.886 17.8696 293.364 18.7218C295.518 18.7386 297.728 18.8395 299.714 18.4303C301.616 18.7218 303.56 18.5256 305.462 18.4415C315.001 18.0322 313.113 18.8788 318.26 18.548C325.49 18.0827 329.183 18.6097 329.728 18.0602C330.567 17.2249 331.966 18.3013 332.735 18.234C336.386 17.9201 340.274 18.234 343.841 17.7351C345.099 17.5557 346.302 17.3875 347.659 17.707C348.764 17.9705 350.134 17.365 352.442 17.4772C356.722 17.6061 356.218 17.5613 356.68 17.7126C355.561 18.0042 356.176 17.6454 352.89 18.0434C353.239 18.0939 353.589 18.178 353.967 18.1892C358.288 18.3462 358.61 18.335 359.799 17.8248C361.547 17.0735 363.393 16.8044 365.939 17.9369C367.771 18.7554 371.463 17.9257 371.687 17.8248C374.219 16.7371 379.31 17.9201 384.639 17.124C385.995 16.9221 388.275 17.8192 390.247 17.4828C393.366 16.9446 397.884 17.152 404.191 17.5557C406.387 17.6958 410.849 16.4848 413.842 17.0847C418.891 18.0939 425.199 16.6811 427.479 16.7596C429.213 16.8212 431.045 16.9726 432.71 16.6306C434.64 16.2326 435.982 16.9614 437.731 16.9053C438.514 16.8773 439.409 16.9614 440.052 16.8549C441.381 16.6306 442.696 16.653 444.094 16.6867C445.885 16.7315 447.619 16.5465 449.367 16.4792C451.046 16.4176 452.808 16.625 454.542 16.6979C455.857 16.754 455.451 16.3783 457.927 16.6474C464.249 17.3426 463.507 17.0118 468.151 16.7091C471.368 16.5017 482.669 15.6887 480.151 16.8381C478.892 17.4099 475.228 17.4491 475.731 17.6398C477.676 18.3686 489.816 17.4548 492.347 16.9726C493.676 16.7203 494.949 16.8044 495.732 17.3707C495.942 17.522 497.117 17.5445 497.872 17.5893C498.389 17.6173 499.089 17.3314 498.851 17.1913C497.844 16.6026 496.599 16.3447 497.9 16.0812C500.026 15.6551 502.459 15.7504 505.383 15.6887C508.012 15.6327 501.592 15.1057 498.361 15.3636L498.305 15.3804ZM160.829 11.2317C161.431 11.1139 160.802 11.142 163.067 11.1027C166.312 11.3718 162.018 11.6746 160.829 11.2317ZM176.886 10.1889C178.019 10.1553 177.837 10.458 177.921 10.5645C178.103 11.8876 174.144 10.2674 176.886 10.1889ZM179.683 6.06261C177.012 5.95609 178.746 5.75426 178.9 5.74865C181.054 5.66456 183.194 6.01215 179.683 6.06261ZM194.131 10.8448C193.474 10.4356 193.655 10.5869 193.585 10.301C193.851 9.97585 194.089 9.33673 195.25 9.88615C195.893 10.1889 194.886 10.5477 194.145 10.8448H194.131ZM196.956 7.91832C197.809 7.74452 199.544 7.40253 199.642 7.9071C199.753 8.49017 195.502 8.20985 196.956 7.91832ZM200.816 5.72062C200.984 5.68698 201.152 5.62531 201.306 5.62531C206.565 5.69259 205.851 5.67577 206.481 5.8776C205.684 5.98972 203.921 5.96169 204.383 5.96169C200.704 5.91684 201.474 5.98412 200.816 5.72062ZM201.572 7.77255C201.544 7.49784 203.208 6.88114 204.061 6.84189C206.411 6.72977 205.362 8.09211 202.397 7.97438C202.103 7.9071 201.586 7.84543 201.586 7.77255H201.572ZM205.698 12.1904C207.544 11.2541 208.914 11.854 208.831 12.0166C208.607 13.0425 204.439 12.8295 205.698 12.1904ZM211.53 10.8897C210.663 11.0018 209.768 11.2261 208.817 10.985C206.117 10.301 206.187 11.54 202.551 10.5757C203.544 10.4075 204.621 10.5197 205.81 9.86933C207.152 9.12929 208.845 10.6374 210.607 10.4356C211.963 10.2786 209.698 9.81327 211.278 9.7516C212.271 9.71235 213.572 10.6262 211.516 10.8897H211.53ZM214.327 15.386C214.033 15.3355 213.922 15.1786 213.726 15.072C213.894 15.0384 214.061 14.9936 214.243 14.9823C218.173 14.674 217.502 14.6628 218.103 15.0552C218.173 15.8233 216.369 15.7448 214.341 15.386H214.327ZM220.118 7.6436C220.705 7.62678 221.74 7.97438 222.02 8.05848C220.02 8.33879 205.152 8.05848 220.118 7.6436ZM215.054 5.55803C216.985 5.2609 219.628 5.53 219.642 5.41787C229.153 5.53561 217.334 6.21398 215.054 5.55803ZM226.369 10.8897C225.95 10.9962 224.761 10.6038 225.027 10.4356C225.264 10.2842 225.74 10.116 226.202 10.0768C227.195 9.98707 227.334 10.6374 226.369 10.8897ZM226.985 5.47394C226.034 5.01982 230.971 5.21044 231.824 5.36181C230.537 5.84957 228.202 6.057 226.985 5.47394ZM227.726 8.13696C227.446 7.68845 227.265 7.84543 228.383 7.53148C230.286 7.4642 231.53 7.91271 232.887 8.2547C233.027 8.29394 232.943 8.5182 232.747 8.59669C231.474 9.09565 229.936 7.83422 227.712 8.13696H227.726ZM232.216 10.0599C232.076 9.91418 231.418 9.81327 231.363 9.67872C231.307 9.53295 232.859 9.53856 233.446 9.70114C234.258 9.931 233.894 10.3122 235.908 10.4132C236.691 10.4524 238.146 10.2898 238.006 10.6823C237.908 10.9289 236.328 10.8729 235.363 10.8561C231.083 10.8 232.467 10.301 232.23 10.0599H232.216ZM240.593 15.1169C238.775 14.7637 237.489 14.859 236.104 15.4365C235.349 15.756 233.572 15.386 233.754 14.9599C233.992 14.3712 235.125 14.4778 237.768 14.4217C240.789 14.4273 240.719 14.5843 241.489 14.9823C241.181 15.0328 240.761 15.1505 240.593 15.1169ZM473.606 5.13195C474.277 5.05346 473.731 5.01982 478.473 5.70941C478.431 5.87199 478.459 5.97851 478.389 5.98412C477.186 6.11306 475.927 5.75986 474.669 6.00654C474.613 6.01776 473.857 5.62531 473.424 5.42348C473.116 5.27772 473.172 5.18241 473.62 5.13195H473.606ZM465.969 8.55184C467.675 7.67724 470.892 7.54269 471.312 8.17621C467.815 8.31076 469.619 9.06202 466.696 8.92746C466.375 8.91064 466.053 8.80973 465.787 8.73124C465.731 8.71442 465.871 8.6079 465.969 8.55744V8.55184ZM443.507 7.9912C444.612 7.87907 444.878 8.01923 445.983 8.35001C446.934 8.63593 447.563 8.91064 446.346 9.3143C446.067 9.40961 446.15 9.62826 446.122 9.81327C442.696 8.93868 443.185 9.23581 443.465 8.28834C443.493 8.18742 443.409 8.00241 443.493 7.9912H443.507ZM440.164 3.88173C440.178 3.98825 440.234 4.06674 440.178 4.07235C438.975 4.2966 437.843 4.53207 437.647 4.27978C437.227 3.73596 439.535 3.87612 440.164 3.88173ZM419.926 6.16913C420.108 6.33732 418.499 6.70734 417.786 6.65128C417.506 6.62885 417.311 6.4943 417.073 6.4102C417.199 6.29807 417.241 6.12428 417.464 6.09064C418.178 5.98412 419.66 5.92805 419.926 6.16913ZM414.388 4.35266C417.59 3.92658 417.003 4.01068 417.702 4.21811C416.933 5.12074 412.723 4.57692 414.388 4.35266ZM414.388 5.04225C415.828 5.01422 418.569 5.12634 417.437 5.40106C414.737 6.057 416.024 6.69052 414.234 6.55036C413.311 6.47748 411.045 5.10952 414.401 5.04225H414.388ZM408.234 2.76606C408.234 2.76606 408.877 3.00714 408.569 3.13048C407.786 3.43883 404.877 3.90976 404.415 3.45004C404.052 3.08562 404.821 3.08562 408.234 2.77167V2.76606ZM404.695 6.62885C405.996 6.584 406.919 7.06615 406.751 7.1166C405.94 7.32965 406.164 7.36329 404.233 6.83629C403.828 6.72416 404.625 6.64006 404.695 6.62885ZM402.233 8.15378C403.282 8.33879 404.317 8.50698 405.282 8.70321C406.485 8.94989 404.583 9.53856 404.219 9.52174C402.751 9.46007 401.31 9.28066 399.898 9.11808C399.604 9.08444 399.366 8.92746 399.226 8.80973C398.933 8.56865 399.072 8.62472 402.247 8.15378H402.233ZM391.072 6.28126C390.079 6.36535 389.17 6.19716 388.96 5.87199C388.918 5.81593 389.31 5.72623 389.506 5.65334C390.779 5.60289 392.205 6.18595 391.072 6.28126ZM389.995 4.476C390.569 4.53767 390.079 4.70026 389.911 4.71147C388.918 4.77875 387.688 5.33378 386.569 4.61616C386.051 4.28539 388.848 4.35266 389.995 4.476ZM375.408 6.28686C377.31 6.42702 377.45 6.43823 377.673 5.98412C377.883 5.57485 379.212 5.22726 378.107 4.72269C377.673 4.52646 378.596 4.2069 379.394 4.22372C384.317 4.32463 383.548 4.35266 384.345 4.49843C381.268 5.003 381.394 4.67223 381.883 5.55803C382.121 6.00654 380.233 6.15231 380.499 6.53915C380.974 7.23995 382.709 8.35561 372.652 7.72209C372.862 6.584 372.61 6.07382 375.394 6.28686H375.408ZM373.911 4.53207C374.037 5.03664 371.631 4.95815 371.016 4.66662C370.247 4.30221 373.184 3.89294 373.911 4.53207ZM367.687 2.45771C367.841 2.23346 368.456 2.18861 368.974 2.26709C369.198 2.30073 369.212 2.48014 369.324 2.59226C368.82 2.98471 367.421 2.84455 367.687 2.45771ZM368.946 5.45712C369.03 5.42348 369.617 5.50758 369.939 5.55803C370.051 5.57485 370.065 5.66456 370.135 5.72062C369.757 6.39338 365.379 6.89796 368.946 5.46273V5.45712ZM351.029 7.87907C348.554 7.75573 349.351 7.82301 348.148 7.61557C351.029 7.39132 358.344 7.67724 351.029 7.87907ZM346.61 8.99474C346.764 8.64154 347.211 8.68639 352.428 8.74806C352.596 8.74806 352.778 8.80412 352.946 8.83776C351.477 9.25263 350.456 9.02277 349.771 9.42082C347.421 9.34233 346.442 9.38158 346.61 9.00034V8.99474ZM328.316 4.99179C326.805 5.22165 327.001 5.12634 326.735 5.16559C326.386 5.21605 326.064 5.28332 325.728 5.33939C327.323 5.79911 327.826 5.4403 329.295 5.72623C329.211 5.76547 329.141 5.83835 329.057 5.83835C327.365 5.87199 324.092 6.78022 322.358 5.01982C321.406 4.06113 327.994 4.87966 328.316 4.99179ZM315.966 2.33998C317.672 2.35119 316.847 3.09684 315.784 2.8838C315.406 2.80531 315.266 2.60908 315.015 2.46332C315.336 2.41847 315.658 2.33998 315.966 2.33998ZM314.427 6.16913C315.35 7.10539 317.616 6.00094 317.616 6.67931C317.616 7.08857 315.91 6.99887 314.329 7.18949C313.155 7.32965 313.238 6.96523 313.28 6.57279C313.294 6.44384 313.28 6.31489 313.336 6.19155C313.462 5.93927 314.357 6.10746 314.427 6.17474V6.16913ZM309.826 4.84042C311.42 4.75072 314.19 4.57692 314.287 4.91891C314.413 5.41787 311.266 5.41227 309.406 5.23847C308.861 5.18801 309.588 4.85163 309.826 4.84042ZM309.098 8.03605C308.455 7.93514 308.008 7.70527 307.476 7.53148C314.036 6.11867 311.476 8.41728 309.098 8.03605ZM306.049 10.6038C306.161 10.3291 303.924 9.93661 305 9.41522C305.532 9.15732 306.399 9.28066 307.154 9.33112C307.658 8.81533 308.805 8.93307 309.882 9.03398C309.966 9.03959 310.022 9.27506 309.868 9.3143C309.294 9.47689 308.651 9.63386 307.84 9.47128C307.644 9.89176 309.224 10.2225 308.161 10.7383C307.546 11.0355 307.868 11.5008 309.196 11.7306C309.924 11.8596 309.378 12.0502 309.322 12.224C309.015 13.3677 313.42 12.964 313.672 11.9269C313.714 11.7699 312.679 11.5793 313.672 11.4728C315.42 11.2877 315.266 12.4651 318.749 11.8035C319.546 11.6522 319.071 11.5288 318.595 11.3999C317.043 10.985 321.295 11.0803 324.232 10.4804C323.742 10.4019 323.253 10.2618 322.735 10.2506C313.266 10.0992 314.176 10.3066 313.322 9.9254C314.539 9.6675 317.448 9.98146 319.49 9.64508C317.672 9.25824 316.385 9.47128 317.266 8.8714C317.616 8.63032 316.539 8.58547 314.539 8.39486C314.805 8.11454 315.448 7.96317 316.245 7.92392C319.84 7.72209 319.686 7.9968 319.295 8.39486C318.805 8.89943 319.63 9.21339 321.001 9.03398C323.476 8.72003 325.966 8.64154 328.539 8.79291C329.98 8.877 331.253 8.40046 332.931 8.77609C335.057 9.24703 338.4 8.15378 339.561 9.70114C339.701 9.88055 339.729 9.97025 339.211 9.98146C336.26 10.0487 334.064 9.95903 334.833 10.4019C336.064 11.1027 336.624 10.6486 339.477 10.5477C340.204 10.5197 340.987 10.6038 341.197 10.9121C340.861 10.9345 340.358 11.2317 338.372 11.512C337.756 11.6017 336.903 11.4728 336.19 11.512C331.169 11.7979 334.624 9.79084 330.148 10.5253C330.036 10.5421 330.12 10.7551 330.26 10.8504C330.428 10.9626 330.791 11.0411 331.015 11.1532C332.148 11.7363 329.141 11.4784 326.442 11.6017C324.763 11.6802 323.49 12.2633 321.49 12.0502C321.169 12.0166 320.329 12.2296 320.176 12.3754C318.987 13.4967 315.896 13.3509 305.448 13.2275C304.147 13.2107 303.924 12.594 305.504 12.4707C309.924 12.1343 304.077 12.1792 302.021 11.6409C300.329 11.198 301.728 11.4784 303.728 10.9458C304.441 10.7551 305.868 10.957 306.035 10.5869L306.049 10.6038ZM329.672 12.9753C328.581 13.1603 325.91 13.0425 325.756 13.0369C325.532 13.0257 324.749 12.8015 325.658 12.7903C329.756 12.7566 328.987 12.751 329.672 12.9753ZM302.077 4.61056C302.385 4.57131 302.791 4.62177 303.154 4.63298C303.07 4.71708 303.056 4.82921 302.889 4.88527C300.357 5.70941 300.707 5.51318 299.728 5.49636C298.553 5.01422 300.245 4.84602 302.077 4.61056ZM285.392 9.1405C289.755 9.06201 288.846 9.09565 289.699 9.28066C286.385 9.71796 283.825 9.16854 285.392 9.1405ZM281.867 5.14877C281.21 5.3562 281.909 5.40106 276.664 5.25529C276.357 5.24408 276.063 5.15438 275.755 5.10392C276.762 5.003 281 4.9133 281.867 5.14877ZM269.601 10.5477C269.07 10.7664 266.622 10.8448 266.398 10.3403C266.44 10.0375 267.056 9.88615 267.783 9.81327C268.748 9.71796 270.119 10.3291 269.601 10.5477ZM265.923 5.57485C265.993 5.32817 266.412 5.33939 268.133 5.67016C268.356 5.70941 268.468 5.81032 268.636 5.8832C268.272 5.91124 267.909 5.94487 267.349 5.98972C265.937 5.75426 265.853 5.78229 265.923 5.57485ZM266.216 7.41935C265 8.04166 263.769 7.87907 262.762 7.59875C261.251 7.18388 264.454 7.01008 266.216 7.41935ZM255.881 7.82861C255.181 7.80619 255.629 7.85665 254.202 7.67164C256.678 7.10539 259.489 7.75573 255.881 7.82861ZM243.153 5.6197C242.831 5.57485 242.51 5.55803 242.51 5.53C242.496 5.42909 242.468 5.27211 242.649 5.23286C244.104 4.89648 246.496 4.97497 243.153 5.6197ZM246.692 9.88054C246.901 9.99267 247.097 10.0543 247.083 10.1048C247.013 10.486 247.027 10.828 245.81 10.7832C244.817 10.7439 245.573 10.486 246.692 9.87494V9.88054ZM246.496 15.2402C244.174 15.1281 246.985 14.1806 247.713 14.7805C247.964 14.9823 247.195 15.2739 246.496 15.2402ZM251.139 14.7076C252.818 14.4946 253.209 14.7581 253.405 14.8085C251.615 15.9186 249.601 14.9039 251.139 14.7076ZM254.44 12.1736C251.922 12.723 249.587 12.5772 247.629 11.8932C249.405 11.6017 256.342 11.7587 254.44 12.1736ZM256.132 9.65068C257.265 9.70114 258.51 10.5253 257.125 10.5813C256.65 10.5982 255.992 10.4804 255.657 10.3515C255.237 10.1945 255.671 9.70675 256.132 9.65068ZM264.524 13.1098C259.699 12.8295 259.321 13.9171 257.321 13.1659C256.999 13.0425 256.482 12.7622 257.125 12.7062C264.664 12.0726 262.44 11.0635 266.44 11.6522C267.223 11.7643 266.454 11.9885 266.58 12.1343C266.818 12.4258 268.286 12.4034 268.3 12.7846C267.084 12.9472 265.951 13.1939 264.524 13.1098ZM272.538 12.4314C273.307 12.6501 271.615 13.6032 268.566 12.8015C270.286 12.6837 270.412 11.826 272.538 12.4314ZM272.133 15.1954C271.21 15.2458 270.203 15.0216 270.021 14.6908C269.839 14.3544 272.3 14.1694 273.559 14.6628C273.825 14.7693 272.748 15.1617 272.119 15.1954H272.133ZM277.713 10.116C278.79 10.1777 281.266 10.3066 279.685 10.43C275.475 10.7607 270.538 10.144 277.713 10.116ZM291.63 13.2724C292.273 12.4651 289.797 12.5716 289.028 12.196C287.476 11.4447 285.252 13.3901 283.196 12.5548C281.573 11.8988 277.224 12.0726 278.51 12.381C279.741 12.6781 280.413 12.8912 278.161 12.9528C276.972 12.9865 274.902 13.4462 274.65 12.8407C274.077 11.4503 274.818 11.5008 276.007 11.5064C277.615 11.512 284.259 11.4559 285.629 11.0859C286.217 10.9289 285.643 10.6823 285.448 10.6486C283.392 10.301 282.748 10.4804 283.462 9.99828C285.168 10.4804 286.706 9.88055 288.371 9.90297C289.699 9.91979 297.252 9.71796 299.042 10.2281C297 10.5757 287.769 10.0487 289.294 10.7215C289.741 10.9177 290.357 11.0747 290.86 11.2597C291.224 11.3999 291.476 11.6746 291.839 11.6858C292.301 11.697 292.804 11.5008 293.308 11.4111C293.616 11.355 293.951 11.3214 294.287 11.2821C294.86 12.4427 291.616 12.1623 296.259 13.2892C295.154 13.4967 291.476 13.4854 291.644 13.2724H291.63ZM328.637 15.5374C326.623 15.6719 324.959 14.9599 323.015 15.4028C319.462 14.7244 315.252 15.2458 311.546 14.6796C310.133 14.4609 308.133 14.6572 306.413 14.6964C306.119 14.702 305.77 14.8534 305.644 14.9655C305.532 15.0608 306.791 15.4084 306.973 15.4645C305.196 15.913 300.972 15.2178 299.182 15.4925C298.217 15.6383 297.196 15.1225 295.909 15.4084C294.371 15.7504 290.175 14.0517 297.965 14.3656C303.812 14.6067 312.022 13.491 314.189 14.0237C314.469 14.0909 315.001 14.1246 315.294 14.0797C318.917 13.5359 322.246 14.1694 325.672 14.3656C328.274 15.2346 330.791 14.2759 333.882 14.0741C336.889 13.8779 335.812 15.1786 339.169 14.7301C343.449 14.1582 343.197 14.0293 344.764 15.3299C345.757 16.1485 333.197 15.229 328.637 15.5374ZM354.694 15.4309C350.134 15.4925 350.778 14.3656 348.484 14.9207C343.239 12.9248 348.722 14.5563 350.876 14.0237C352.372 13.6536 354.498 13.6705 355.086 14.3432C355.911 15.2907 356.065 15.4084 354.708 15.4309H354.694ZM376.792 15.358C376.666 15.5262 374.932 15.7728 373.715 15.4196C370.051 14.3712 360.624 14.9431 368.317 15.2627C368.484 15.2683 368.61 15.3468 368.764 15.386C368.666 15.4196 368.582 15.4813 368.484 15.4813C363.086 15.599 361.323 15.6327 360.582 14.8702C360.009 14.2815 356.778 14.1134 359.323 13.9452C364.219 13.62 371.687 13.7658 372.107 13.6761C374.652 13.1322 375.45 14.0853 377.1 14.2759C377.016 14.6347 377.058 15.0048 376.792 15.3524V15.358ZM379.156 11.8932C379.058 12.0726 378.68 12.1399 378.191 12.1511C377.212 12.6277 375.687 12.409 374.401 12.4931C373.45 12.5548 372.498 12.7118 371.561 12.7005C370.624 12.6893 369.659 12.4146 368.778 12.4483C366.456 12.538 366.428 12.0558 365.995 11.512C365.421 10.7888 365.337 12.3025 363.254 11.9044C359.925 11.2653 360.988 13.0369 357.519 12.6501C356.316 12.5155 355.337 12.3978 354.358 12.7734C354.148 12.8575 353.505 12.936 353.337 12.8968C350.834 12.2689 348.218 13.2556 345.924 12.8631C340.652 11.9605 339.617 12.9921 338.666 12.6557C335.491 11.512 344.302 12.6333 342.764 11.725C341.882 11.2036 341.603 10.9738 341.351 10.9177C344.134 10.6094 344.75 11.4223 345.924 11.9493C346.554 12.2352 347.925 11.7587 347.505 11.5064C347.337 11.4055 345.813 11.2709 346.246 10.9289C346.708 10.5645 347.337 10.2337 345.659 10.0207C345.267 9.97025 345.463 9.62826 348.344 9.94222C350.022 10.1216 349.603 9.69554 349.785 9.43764C350.82 9.44885 352.302 9.32551 351.267 9.99828C351.015 10.1665 354.4 10.6374 355.239 10.5477C356.666 10.4019 360.135 10.9401 360.848 10.6486C363.254 9.65629 357.365 10.0375 353.995 9.74599C353.729 9.72357 353.925 9.51613 354.19 9.47128C359.435 8.47895 365.421 8.8714 363.156 8.01362C362.904 7.91832 361.673 7.79498 362.624 7.70527C370.442 6.99887 371.436 7.51466 372.498 7.71649C371.967 8.46774 368.037 7.73331 365.701 8.24349C365.995 8.32197 366.261 8.41728 366.582 8.46774C367.156 8.56305 368.079 8.38364 368.359 8.71442C365.659 8.86019 365.449 8.83215 365.463 9.29748C365.463 9.60023 369.645 9.24142 370.401 9.11808C370.988 9.02277 370.568 8.40607 372.289 8.50698C376.233 8.73124 381.002 7.87907 382.736 8.36683C385.883 9.24142 390.513 6.89796 392.96 7.638C394.499 8.10333 389.394 7.74452 393.086 9.51052C394.345 10.1104 390.037 10.2225 390.177 9.23021C390.289 8.50698 386.667 8.86579 387.296 9.35915C387.869 9.80766 387.548 10.2506 387.646 10.6935C386.275 10.8504 385.086 11.1588 383.464 11.1196C382.093 11.0859 380.932 11.3102 380.429 11.7867C379.995 11.826 379.562 11.8596 379.128 11.8988L379.156 11.8932ZM390.485 12.1455C387.646 11.5681 385.478 14.0629 380.583 11.7979C383.548 11.5288 384.499 11.198 385.338 11.9549C385.785 12.3586 388.009 11.826 387.814 10.7159C390.079 10.7103 390.275 11.3718 390.974 11.8652C391.114 11.9661 390.639 12.1736 390.485 12.1399V12.1455ZM391.884 15.4813C388.932 15.4645 390.625 14.5282 386.373 14.6908C385.744 14.7132 385.366 14.8254 385.52 15.072C386.037 15.9018 382.583 14.8702 380.443 14.2872C380.345 14.2591 380.373 14.1526 380.443 14.1021C380.932 13.7489 382.778 14.7076 384.946 13.7489C386.723 12.964 387.086 14.5507 393.072 13.407C393.59 13.306 394.331 13.3004 394.359 13.5527C394.443 14.4105 396.177 14.4217 397.982 14.4217C397.996 15.6159 395.408 15.5037 391.884 15.4813ZM418.024 15.0216C418.206 15.4645 415.367 15.5037 414.555 15.0216C409.66 16.0363 409.171 14.6235 405.184 14.4946C405.73 14.8814 406.359 15.2122 405.282 15.2627C400.667 15.4813 402.513 14.7132 398.135 14.3937C399.003 13.8499 402.975 13.4967 402.219 13.9732C401.212 14.6011 403.282 14.4946 405.198 14.4946C405.674 14.2311 405.087 14.0909 408.695 14.2311C414.22 14.4441 408.555 12.9977 417.828 14.0741C417.94 14.0853 418.01 14.0909 418.052 14.0965C417.926 14.0965 417.716 14.1246 417.604 14.2423C417.437 14.4273 417.115 14.6011 416.863 14.7805C417.478 14.7413 417.94 14.8085 418.038 15.0272L418.024 15.0216ZM425.199 15.0945C420.933 15.2066 421.632 14.7469 424.052 13.6648C424.122 13.6312 424.947 13.7041 425.003 13.7714C425.339 14.1302 425.563 14.5058 425.856 14.9431C425.73 14.9711 425.479 15.0833 425.199 15.0945ZM415.031 12.2128C413.492 12.196 412.359 12.1623 412.807 10.985C409.492 11.8035 406.667 10.7944 406.975 12.0278C407.031 12.2296 407.045 12.4875 406.471 12.3642C404.681 11.9773 403.142 12.224 401.478 12.4034C399.114 12.6557 400.191 11.484 398.261 11.2261C397.562 11.1364 395.828 11.2036 397.24 11.5905C397.674 11.7082 398.345 11.7699 398.051 12.0334C397.814 12.2464 397.282 12.3025 396.681 12.3249C394.765 12.3978 394.135 12.538 392.499 11.0915C392.317 10.9345 393.044 10.4132 393.464 10.4244C396.709 10.5253 402.975 9.17975 403.254 10.828C403.59 10.8 403.996 10.7888 404.177 10.7159C405.352 10.2674 406.751 10.116 408.15 10.5197C409.772 10.9906 411.394 10.4804 412.975 10.615C412.975 10.2394 413.856 10.0487 414.499 9.80766C414.625 9.76281 414.779 9.65068 414.737 9.63947C413.101 9.16854 412.136 9.86933 410.695 9.39279C410.387 9.29188 411.031 8.99474 411.618 8.98353C412.22 8.96671 414.192 9.0508 414.471 8.89943C414.947 8.64154 414.01 8.67518 413.73 8.56865C412.891 8.23788 412.765 7.72209 411.283 7.5539C411.129 7.53708 410.989 7.2848 411.143 7.20631C411.8 6.88674 414.961 7.01008 415.171 7.38571C416.066 8.97792 420.388 7.34086 416.975 9.85812C416.569 10.1553 417.325 10.2786 417.66 10.2394C420.29 9.94782 423.227 10.2786 425.786 9.65068C427.073 9.33673 426.374 9.17414 426.248 8.90504C425.814 7.96877 428.64 9.3984 431.283 8.28273C432.066 7.95195 433.493 8.11454 434.64 8.17621C435.185 8.20424 435.227 8.29955 434.933 8.46774C434.43 8.73685 434.402 9.06762 433.549 9.3087C432.556 9.58901 430.793 9.19657 430.22 9.83569C429.926 10.1609 428.332 10.828 428.178 10.7664C429.633 10.9009 429.115 11.4279 429.884 11.7026C431.759 12.3754 417.758 12.2352 415.045 12.2016L415.031 12.2128ZM433.968 14.8478C433.227 14.9655 431.535 15.1225 431.563 14.8646C431.605 14.4946 432.416 14.5002 433.395 14.3993C433.87 14.489 434.178 14.545 434.5 14.6067C434.318 14.6908 434.192 14.8085 433.954 14.8478H433.968ZM434.192 13.9564C431.297 14.36 428.64 13.5191 429.898 13.1827C431.241 12.8239 433.493 12.8071 434.71 13.1435C435.507 13.3621 434.738 13.8779 434.192 13.9564ZM431.241 10.8056C430.807 10.2562 434.178 10.4916 434.905 10.6654C432.961 11.1924 432.989 11.0242 436.388 11.7082C435.996 12.5492 431.87 11.6241 431.227 10.8056H431.241ZM440.304 11.8764C438.906 12.1567 437.871 11.6129 436.57 11.6802C436.808 11.4559 437.227 11.2205 437.101 11.0186C436.878 10.6374 436.346 10.245 437.353 9.94782C438.206 9.69554 442.402 9.64508 444.5 10.1048C445.171 10.2506 445.857 10.116 446.192 9.85812C447.703 9.93661 448.864 9.72357 449.521 9.29188C450.444 8.67518 451.102 8.692 455.759 8.7873C455.969 8.7873 456.277 8.93307 456.318 9.01716C456.346 9.07883 456.374 9.11247 456.402 9.12929C456.36 9.11247 456.235 9.09005 455.941 9.1349C453.437 9.52734 457.465 9.91418 456.123 10.3515C454.668 10.8224 454.57 10.3291 453.577 10.4412C452.78 10.5309 452.304 10.7664 452.193 11.0299C451.955 11.5905 453.214 11.4111 455.06 11.7363C452.598 12.2184 450.053 11.697 449.06 11.6522C448.276 11.6185 447.395 11.9661 446.486 12.0726C442.808 12.4931 442.15 11.5064 440.318 11.8764H440.304ZM456.388 13.8947C454.5 13.7041 452.71 14.2311 450.71 13.9283C449.507 13.7489 449.675 14.1077 449.857 14.3769C449.927 14.4778 448.458 14.8085 448.318 14.3937C448.011 13.5023 449.563 13.5527 451.102 13.5415C458.277 13.5023 456.892 13.9396 456.388 13.8891V13.8947ZM455.759 8.06408C458.207 8.11454 457.032 7.35768 461.424 8.28834C455.703 8.56865 454.528 8.04166 455.759 8.06408ZM459.116 9.7516C460.263 9.72357 460.123 10.0207 460.277 10.772C457.004 10.4075 458.207 9.77402 459.116 9.7516ZM470.794 14.8142C464.459 14.1918 465.06 14.5787 463.941 14.3096C464.137 14.2199 464.319 14.0685 464.556 14.0573C465.619 14.0012 466.598 13.5864 467.787 13.9844C467.969 14.0461 468.696 14.0461 468.864 13.9844C470.487 13.3901 472.305 13.6368 474.235 13.7433C479.913 14.0517 479.955 13.0706 482.025 13.9171C484.641 14.9879 474.906 14.2087 470.808 14.8142H470.794ZM488.389 14.2815C487.144 14.0573 490.459 13.8106 490.613 14.3769C490.711 14.7244 489.312 14.4497 488.389 14.2815ZM492.879 11.5905C493.34 11.7643 492.767 12.1231 492.096 12.2128C488.291 12.7062 487.564 11.013 486.151 12.0614C484.655 13.1715 480.976 13.1827 480.948 12.4819C480.948 12.1343 481.158 11.9044 479.983 11.7475C479.27 11.6522 478.739 11.4784 477.871 11.6241C473.228 12.409 474.711 13.0089 473.564 12.6277C473.088 12.4651 473.829 11.9717 472.221 11.8484C469.018 11.6017 469.997 10.5757 467.48 11.0803C463.787 11.8203 464.556 12.2016 461.326 11.9325C460.794 11.8876 460.78 11.7923 461.116 11.6409C461.969 11.2653 460.333 11.1027 460.43 10.7888C461.731 10.3571 462.99 9.93661 465.172 10.0599C468.543 10.2562 471.773 9.85251 475.06 9.72917C475.801 9.70114 475.899 9.24142 475.312 9.1405C474.109 8.94428 471.899 8.96671 471.48 8.165C472.375 8.07529 473.27 7.93513 474.137 7.95195C474.683 7.96317 475.172 8.38925 475.704 8.38925C476.375 8.38925 477.032 8.10893 477.76 8.04166C480.403 7.79498 482.501 8.02484 480.976 8.22106C479.704 8.38364 479.48 8.80973 478.878 9.1405C477.606 9.8413 480.99 10.0712 481.746 9.48249C482.165 9.15172 481.997 8.57987 484.473 8.77048C485.578 8.85458 483.913 9.79645 486.963 9.96464C490.557 10.1609 491.956 8.80973 493.284 9.39279C495.774 10.486 489.984 10.4972 492.865 11.5961L492.879 11.5905ZM493.62 7.83422C491.746 8.11454 490.753 7.638 491.2 7.31283C492.068 6.69052 493.312 7.22873 494.11 7.44177C493.9 7.62118 493.844 7.80058 493.62 7.83422Z" fill="#FFC619"/>
</svg>
